{"asset":{"version":"2.0","generator":"Blockbench 4.11.2 glTF exporter"},"scenes":[{"nodes":[16],"name":"blockbench_export"}],"scene":0,"nodes":[{"translation":[-0.09821900978552911,0.806105688250021,0.10401917664312567],"name":"sphere","mesh":0},{"translation":[-0.09821900978552911,0.806105688250021,0.10401917664312567],"name":"sphere","mesh":1},{"translation":[-0.09821900978552911,0.806105688250021,0.10401917664312567],"name":"sphere","mesh":2},{"translation":[1.555480890290614e-18,-0.2833700000000001,-0.012679999999999988],"name":"cylinder","mesh":3},{"rotation":[0.08675449499688673,0.09548103049526069,0.008353507750108345,0.991608415314063],"translation":[-4.531462924193732e-19,-0.014619999999999744,-0.0001800000000000048],"name":"cylinder","mesh":4},{"rotation":[0.19747625217131123,0.01043543864644638,-0.019795466468593693,0.9800522286877978],"translation":[-2.1211103049417464e-19,0.003130000000000077,-0.026680000000000002],"name":"cylinder","mesh":5},{"rotation":[0.05668678424464539,-0.943780764524326,0.060243909392860395,-0.32005491464269764],"translation":[-4.531462924193732e-19,-0.014619999999999744,-0.0001800000000000048],"name":"cylinder","mesh":6},{"rotation":[0.02873443306483202,-0.9404964766419228,-0.08228277979224181,0.32843607282123133],"translation":[-4.531462924193732e-19,-0.014619999999999744,-0.0001800000000000048],"name":"cylinder","mesh":7},{"rotation":[0.03427476797042636,-0.6058190582697813,0.02998115167635855,0.794298205626733],"translation":[-4.531462924193732e-19,-0.014619999999999744,-0.0001800000000000048],"name":"cylinder","mesh":8},{"rotation":[0.003795697497487649,0.6057525739889589,0.11112884723388741,0.7878450298749912],"translation":[-4.531462924193732e-19,-0.014619999999999744,-0.0001800000000000048],"name":"cylinder","mesh":9},{"rotation":[-0.06551772080952889,-0.7969255701159043,-0.05223326147140976,-0.5982380382017053],"translation":[-4.531462924193732e-19,-0.014619999999999744,-0.0001800000000000048],"name":"cylinder","mesh":10},{"rotation":[0.05625614790013734,0.9951273860141691,-0.06722569472663995,-0.04513798175113155],"translation":[-4.531462924193732e-19,-0.014619999999999744,-0.0001800000000000048],"name":"cylinder","mesh":11},{"rotation":[0.2510513527784287,0.7264651163153714,0.018665812847537266,0.6394319670424335],"name":"cylinder","mesh":12},{"rotation":[0.12826216953827507,0.9653002105636137,-0.19340785755799592,-0.11974021874877294],"name":"cylinder","mesh":13},{"rotation":[0.15236845134654015,-0.3367118014915234,0.12693569092535925,0.920487016823101],"name":"cylinder","mesh":14},{"translation":[-1.555480890290614e-18,0.2833700000000001,0.012679999999999988],"name":"bottom","children":[3,4,5,6,7,8,9,10,11,12,13,14]},{"children":[0,1,2,15]}],"bufferViews":[{"buffer":0,"byteOffset":0,"byteLength":3552,"target":34962,"byteStride":12},{"buffer":0,"byteOffset":3552,"byteLength":3552,"target":34962,"byteStride":12},{"buffer":0,"byteOffset":7104,"byteLength":2368,"target":34962,"byteStride":8},{"buffer":0,"byteOffset":9472,"byteLength":852,"target":34963},{"buffer":0,"byteOffset":10324,"byteLength":3552,"target":34962,"byteStride":12},{"buffer":0,"byteOffset":13876,"byteLength":3552,"target":34962,"byteStride":12},{"buffer":0,"byteOffset":17428,"byteLength":2368,"target":34962,"byteStride":8},{"buffer":0,"byteOffset":19796,"byteLength":852,"target":34963},{"buffer":0,"byteOffset":20648,"byteLength":3552,"target":34962,"byteStride":12},{"buffer":0,"byteOffset":24200,"byteLength":3552,"target":34962,"byteStride":12},{"buffer":0,"byteOffset":27752,"byteLength":2368,"target":34962,"byteStride":8},{"buffer":0,"byteOffset":30120,"byteLength":852,"target":34963},{"buffer":0,"byteOffset":30972,"byteLength":1200,"target":34962,"byteStride":12},{"buffer":0,"byteOffset":32172,"byteLength":1200,"target":34962,"byteStride":12},{"buffer":0,"byteOffset":33372,"byteLength":800,"target":34962,"byteStride":8},{"buffer":0,"byteOffset":34172,"byteLength":276,"target":34963},{"buffer":0,"byteOffset":34448,"byteLength":3264,"target":34962,"byteStride":12},{"buffer":0,"byteOffset":37712,"byteLength":3264,"target":34962,"byteStride":12},{"buffer":0,"byteOffset":40976,"byteLength":2176,"target":34962,"byteStride":8},{"buffer":0,"byteOffset":43152,"byteLength":768,"target":34963},{"buffer":0,"byteOffset":43920,"byteLength":3264,"target":34962,"byteStride":12},{"buffer":0,"byteOffset":47184,"byteLength":3264,"target":34962,"byteStride":12},{"buffer":0,"byteOffset":50448,"byteLength":2176,"target":34962,"byteStride":8},{"buffer":0,"byteOffset":52624,"byteLength":768,"target":34963},{"buffer":0,"byteOffset":53392,"byteLength":3264,"target":34962,"byteStride":12},{"buffer":0,"byteOffset":56656,"byteLength":3264,"target":34962,"byteStride":12},{"buffer":0,"byteOffset":59920,"byteLength":2176,"target":34962,"byteStride":8},{"buffer":0,"byteOffset":62096,"byteLength":768,"target":34963},{"buffer":0,"byteOffset":62864,"byteLength":3264,"target":34962,"byteStride":12},{"buffer":0,"byteOffset":66128,"byteLength":3264,"target":34962,"byteStride":12},{"buffer":0,"byteOffset":69392,"byteLength":2176,"target":34962,"byteStride":8},{"buffer":0,"byteOffset":71568,"byteLength":768,"target":34963},{"buffer":0,"byteOffset":72336,"byteLength":3264,"target":34962,"byteStride":12},{"buffer":0,"byteOffset":75600,"byteLength":3264,"target":34962,"byteStride":12},{"buffer":0,"byteOffset":78864,"byteLength":2176,"target":34962,"byteStride":8},{"buffer":0,"byteOffset":81040,"byteLength":768,"target":34963},{"buffer":0,"byteOffset":81808,"byteLength":3264,"target":34962,"byteStride":12},{"buffer":0,"byteOffset":85072,"byteLength":3264,"target":34962,"byteStride":12},{"buffer":0,"byteOffset":88336,"byteLength":2176,"target":34962,"byteStride":8},{"buffer":0,"byteOffset":90512,"byteLength":768,"target":34963},{"buffer":0,"byteOffset":91280,"byteLength":3264,"target":34962,"byteStride":12},{"buffer":0,"byteOffset":94544,"byteLength":3264,"target":34962,"byteStride":12},{"buffer":0,"byteOffset":97808,"byteLength":2176,"target":34962,"byteStride":8},{"buffer":0,"byteOffset":99984,"byteLength":768,"target":34963},{"buffer":0,"byteOffset":100752,"byteLength":3264,"target":34962,"byteStride":12},{"buffer":0,"byteOffset":104016,"byteLength":3264,"target":34962,"byteStride":12},{"buffer":0,"byteOffset":107280,"byteLength":2176,"target":34962,"byteStride":8},{"buffer":0,"byteOffset":109456,"byteLength":768,"target":34963},{"buffer":0,"byteOffset":110224,"byteLength":3264,"target":34962,"byteStride":12},{"buffer":0,"byteOffset":113488,"byteLength":3264,"target":34962,"byteStride":12},{"buffer":0,"byteOffset":116752,"byteLength":2176,"target":34962,"byteStride":8},{"buffer":0,"byteOffset":118928,"byteLength":768,"target":34963},{"buffer":0,"byteOffset":119696,"byteLength":3264,"target":34962,"byteStride":12},{"buffer":0,"byteOffset":122960,"byteLength":3264,"target":34962,"byteStride":12},{"buffer":0,"byteOffset":126224,"byteLength":2176,"target":34962,"byteStride":8},{"buffer":0,"byteOffset":128400,"byteLength":768,"target":34963},{"buffer":0,"byteOffset":129168,"byteLength":3264,"target":34962,"byteStride":12},{"buffer":0,"byteOffset":132432,"byteLength":3264,"target":34962,"byteStride":12},{"buffer":0,"byteOffset":135696,"byteLength":2176,"target":34962,"byteStride":8},{"buffer":0,"byteOffset":137872,"byteLength":768,"target":34963}],"buffers":[{"byteLength":138640,"uri":"data:application/octet-stream;base64,"}],"accessors":[{"bufferView":0,"componentType":5126,"count":296,"max":[0.8357189893722534,0.3751443028450012,0.3647308349609375],"min":[-0.22053098678588867,-0.26860567927360535,-0.8352691531181335],"type":"VEC3"},{"bufferView":1,"componentType":5126,"count":296,"max":[0.9681920409202576,0.9955286979675293,0.9902517199516296],"min":[-0.9914876818656921,-1,-0.9811628460884094],"type":"VEC3"},{"bufferView":2,"componentType":5126,"count":296,"max":[0.5986833572387695,0.37264764308929443],"min":[0.003747655311599374,0],"type":"VEC2"},{"bufferView":3,"componentType":5123,"count":426,"max":[295],"min":[0],"type":"SCALAR"},{"bufferView":4,"componentType":5126,"count":296,"max":[0.5712190270423889,0.2462693154811859,0.7564808130264282],"min":[-0.3371559977531433,-0.30735570192337036,-0.27551916241645813],"type":"VEC3"},{"bufferView":5,"componentType":5126,"count":296,"max":[0.9681920409202576,0.9955286979675293,0.9902517199516296],"min":[-0.9914876818656921,-1,-0.9811628460884094],"type":"VEC3"},{"bufferView":6,"componentType":5126,"count":296,"max":[0.6037737131118774,0.5078125],"min":[0.0011284049833193421,0],"type":"VEC2"},{"bufferView":7,"componentType":5123,"count":426,"max":[295],"min":[0],"type":"SCALAR"},{"bufferView":8,"componentType":5126,"count":296,"max":[0.1025790125131607,0.16596680879592896,0.35646581649780273],"min":[-0.6422885060310364,-0.28800567984580994,-0.4897741675376892],"type":"VEC3"},{"bufferView":9,"componentType":5126,"count":296,"max":[0.9681920409202576,0.9955286979675293,0.9902517199516296],"min":[-0.9914876818656921,-1,-0.9811628460884094],"type":"VEC3"},{"bufferView":10,"componentType":5126,"count":296,"max":[0.5680513381958008,0.5],"min":[0.08957421034574509,0.0027315616607666016],"type":"VEC2"},{"bufferView":11,"componentType":5123,"count":426,"max":[295],"min":[0],"type":"SCALAR"},{"bufferView":12,"componentType":5126,"count":100,"max":[0.05624999850988388,0.2857142984867096,0.05624999850988388],"min":[-0.05624999850988388,0,-0.05624999850988388],"type":"VEC3"},{"bufferView":13,"componentType":5126,"count":100,"max":[0.9990443587303162,1,0.9990443587303162],"min":[-0.9990443587303162,-1,-0.9990443587303162],"type":"VEC3"},{"bufferView":14,"componentType":5126,"count":100,"max":[0.609375,0.6374468803405762],"min":[0.03125,0.1484375],"type":"VEC2"},{"bufferView":15,"componentType":5123,"count":138,"max":[99],"min":[0],"type":"SCALAR"},{"bufferView":16,"componentType":5126,"count":272,"max":[0.025265377014875412,0.508552610874176,-9.102479425501748e-17],"min":[-0.025265377014875412,-0.022962745279073715,-0.53125],"type":"VEC3"},{"bufferView":17,"componentType":5126,"count":272,"max":[1,1,1],"min":[-1,-0.9876661896705627,-0.9951892495155334],"type":"VEC3"},{"bufferView":18,"componentType":5126,"count":272,"max":[0.6224175691604614,0.6733765602111816],"min":[0.0024042148143053055,0],"type":"VEC2"},{"bufferView":19,"componentType":5123,"count":384,"max":[271],"min":[0],"type":"SCALAR"},{"bufferView":20,"componentType":5126,"count":272,"max":[0.02223353087902069,0.44752630591392517,-8.010182132669555e-17],"min":[-0.02223353087902069,-0.02020721510052681,-0.4675000011920929],"type":"VEC3"},{"bufferView":21,"componentType":5126,"count":272,"max":[1,1,1],"min":[-1,-0.9876661896705627,-0.9951892495155334],"type":"VEC3"},{"bufferView":22,"componentType":5126,"count":272,"max":[0.6300714612007141,0.6796875],"min":[0.018156250938773155,0],"type":"VEC2"},{"bufferView":23,"componentType":5123,"count":384,"max":[271],"min":[0],"type":"SCALAR"},{"bufferView":24,"componentType":5126,"count":272,"max":[0.025265377014875412,0.508552610874176,-9.102479425501748e-17],"min":[-0.025265377014875412,-0.022962745279073715,-0.53125],"type":"VEC3"},{"bufferView":25,"componentType":5126,"count":272,"max":[1,1,1],"min":[-1,-0.9876661896705627,-0.9951892495155334],"type":"VEC3"},{"bufferView":26,"componentType":5126,"count":272,"max":[0.6302300691604614,0.6811890602111816],"min":[0.0007484374800696969,0.1640625],"type":"VEC2"},{"bufferView":27,"componentType":5123,"count":384,"max":[271],"min":[0],"type":"SCALAR"},{"bufferView":28,"componentType":5126,"count":272,"max":[0.025265377014875412,0.508552610874176,-9.102479425501748e-17],"min":[-0.025265377014875412,-0.022962745279073715,-0.53125],"type":"VEC3"},{"bufferView":29,"componentType":5126,"count":272,"max":[1,1,1],"min":[-1,-0.9876661896705627,-0.9951892495155334],"type":"VEC3"},{"bufferView":30,"componentType":5126,"count":272,"max":[0.6302300691604614,0.6811890602111816],"min":[0.03383242338895798,0],"type":"VEC2"},{"bufferView":31,"componentType":5123,"count":384,"max":[271],"min":[0],"type":"SCALAR"},{"bufferView":32,"componentType":5126,"count":272,"max":[0.025265377014875412,0.508552610874176,-9.102479425501748e-17],"min":[-0.025265377014875412,-0.022962745279073715,-0.53125],"type":"VEC3"},{"bufferView":33,"componentType":5126,"count":272,"max":[1,1,1],"min":[-1,-0.9876661896705627,-0.9951892495155334],"type":"VEC3"},{"bufferView":34,"componentType":5126,"count":272,"max":[0.6171875,0.6811890602111816],"min":[0.04945742338895798,0.1171875],"type":"VEC2"},{"bufferView":35,"componentType":5123,"count":384,"max":[271],"min":[0],"type":"SCALAR"},{"bufferView":36,"componentType":5126,"count":272,"max":[0.025265377014875412,0.508552610874176,-9.102479425501748e-17],"min":[-0.025265377014875412,-0.022962745279073715,-0.53125],"type":"VEC3"},{"bufferView":37,"componentType":5126,"count":272,"max":[1,1,1],"min":[-1,-0.9876661896705627,-0.9951892495155334],"type":"VEC3"},{"bufferView":38,"componentType":5126,"count":272,"max":[0.6224175691604614,0.6811890602111816],"min":[0.08046858757734299,0.046875],"type":"VEC2"},{"bufferView":39,"componentType":5123,"count":384,"max":[271],"min":[0],"type":"SCALAR"},{"bufferView":40,"componentType":5126,"count":272,"max":[0.025265377014875412,0.508552610874176,-9.102479425501748e-17],"min":[-0.025265377014875412,-0.022962745279073715,-0.53125],"type":"VEC3"},{"bufferView":41,"componentType":5126,"count":272,"max":[1,1,1],"min":[-1,-0.9876661896705627,-0.9951892495155334],"type":"VEC3"},{"bufferView":42,"componentType":5126,"count":272,"max":[0.6302300691604614,0.6811890602111816],"min":[0.0007506809197366238,0],"type":"VEC2"},{"bufferView":43,"componentType":5123,"count":384,"max":[271],"min":[0],"type":"SCALAR"},{"bufferView":44,"componentType":5126,"count":272,"max":[0.025265377014875412,0.508552610874176,-9.102479425501748e-17],"min":[-0.025265377014875412,-0.022962745279073715,-0.53125],"type":"VEC3"},{"bufferView":45,"componentType":5126,"count":272,"max":[1,1,1],"min":[-1,-0.9876661896705627,-0.9951892495155334],"type":"VEC3"},{"bufferView":46,"componentType":5126,"count":272,"max":[0.625,0.6811890602111816],"min":[0.03200067952275276,0],"type":"VEC2"},{"bufferView":47,"componentType":5123,"count":384,"max":[271],"min":[0],"type":"SCALAR"},{"bufferView":48,"componentType":5126,"count":272,"max":[0.019565507769584656,0.39382314682006836,-7.048959879702514e-17],"min":[-0.019565507769584656,-0.01778234913945198,-0.4113999903202057],"type":"VEC3"},{"bufferView":49,"componentType":5126,"count":272,"max":[1,1,1],"min":[-1,-0.9876661896705627,-0.9951892495155334],"type":"VEC3"},{"bufferView":50,"componentType":5126,"count":272,"max":[0.637744128704071,0.6796875],"min":[0,0.078125],"type":"VEC2"},{"bufferView":51,"componentType":5123,"count":384,"max":[271],"min":[0],"type":"SCALAR"},{"bufferView":52,"componentType":5126,"count":272,"max":[0.019565507769584656,0.39382314682006836,-7.048959879702514e-17],"min":[-0.019565507769584656,-0.01778234913945198,-0.4113999903202057],"type":"VEC3"},{"bufferView":53,"componentType":5126,"count":272,"max":[1,1,1],"min":[-1,-0.9876661896705627,-0.9951892495155334],"type":"VEC3"},{"bufferView":54,"componentType":5126,"count":272,"max":[0.6374703049659729,0.671875],"min":[0.09663085639476776,0.00012111663818359375],"type":"VEC2"},{"bufferView":55,"componentType":5123,"count":384,"max":[271],"min":[0],"type":"SCALAR"},{"bufferView":56,"componentType":5126,"count":272,"max":[0.019565507769584656,0.39382314682006836,-7.048959879702514e-17],"min":[-0.019565507769584656,-0.01778234913945198,-0.4113999903202057],"type":"VEC3"},{"bufferView":57,"componentType":5126,"count":272,"max":[1,1,1],"min":[-1,-0.9876661896705627,-0.9951892495155334],"type":"VEC3"},{"bufferView":58,"componentType":5126,"count":272,"max":[0.6374703049659729,0.6763249635696411],"min":[0,0.054808616638183594],"type":"VEC2"},{"bufferView":59,"componentType":5123,"count":384,"max":[271],"min":[0],"type":"SCALAR"}],"materials":[{"pbrMetallicRoughness":{"metallicFactor":0,"roughnessFactor":1,"baseColorTexture":{"index":0}},"alphaMode":"MASK","alphaCutoff":0.05,"doubleSided":true}],"textures":[{"sampler":0,"source":0,"name":"azalia"}],"samplers":[{"magFilter":9728,"minFilter":9728,"wrapS":33071,"wrapT":33071}],"images":[{"mimeType":"image/png","uri":"data:image/png;base64,"}],"meshes":[{"primitives":[{"mode":4,"attributes":{"POSITION":0,"NORMAL":1,"TEXCOORD_0":2},"indices":3,"material":0}]},{"primitives":[{"mode":4,"attributes":{"POSITION":4,"NORMAL":5,"TEXCOORD_0":6},"indices":7,"material":0}]},{"primitives":[{"mode":4,"attributes":{"POSITION":8,"NORMAL":9,"TEXCOORD_0":10},"indices":11,"material":0}]},{"primitives":[{"mode":4,"attributes":{"POSITION":12,"NORMAL":13,"TEXCOORD_0":14},"indices":15,"material":0}]},{"primitives":[{"mode":4,"attributes":{"POSITION":16,"NORMAL":17,"TEXCOORD_0":18},"indices":19,"material":0}]},{"primitives":[{"mode":4,"attributes":{"POSITION":20,"NORMAL":21,"TEXCOORD_0":22},"indices":23,"material":0}]},{"primitives":[{"mode":4,"attributes":{"POSITION":24,"NORMAL":25,"TEXCOORD_0":26},"indices":27,"material":0}]},{"primitives":[{"mode":4,"attributes":{"POSITION":28,"NORMAL":29,"TEXCOORD_0":30},"indices":31,"material":0}]},{"primitives":[{"mode":4,"attributes":{"POSITION":32,"NORMAL":33,"TEXCOORD_0":34},"indices":35,"material":0}]},{"primitives":[{"mode":4,"attributes":{"POSITION":36,"NORMAL":37,"TEXCOORD_0":38},"indices":39,"material":0}]},{"primitives":[{"mode":4,"attributes":{"POSITION":40,"NORMAL":41,"TEXCOORD_0":42},"indices":43,"material":0}]},{"primitives":[{"mode":4,"attributes":{"POSITION":44,"NORMAL":45,"TEXCOORD_0":46},"indices":47,"material":0}]},{"primitives":[{"mode":4,"attributes":{"POSITION":48,"NORMAL":49,"TEXCOORD_0":50},"indices":51,"material":0}]},{"primitives":[{"mode":4,"attributes":{"POSITION":52,"NORMAL":53,"TEXCOORD_0":54},"indices":55,"material":0}]},{"primitives":[{"mode":4,"attributes":{"POSITION":56,"NORMAL":57,"TEXCOORD_0":58},"indices":59,"material":0}]}]}