{"asset":{"version":"2.0","generator":"Blockbench 4.11.2 glTF exporter"},"scenes":[{"nodes":[1],"name":"blockbench_export"}],"scene":0,"nodes":[{"translation":[0,0.6140625000000002,0],"name":"sphere","mesh":0},{"children":[0]}],"bufferViews":[{"buffer":0,"byteOffset":0,"byteLength":3552,"target":34962,"byteStride":12},{"buffer":0,"byteOffset":3552,"byteLength":3552,"target":34962,"byteStride":12},{"buffer":0,"byteOffset":7104,"byteLength":2368,"target":34962,"byteStride":8},{"buffer":0,"byteOffset":9472,"byteLength":852,"target":34963}],"buffers":[{"byteLength":10324,"uri":"data:application/octet-stream;base64,"}],"accessors":[{"bufferView":0,"componentType":5126,"count":296,"max":[0.7491216659545898,0.3001871109008789,0.8159341216087341],"min":[-0.7881875038146973,-0.614062488079071,-0.7510591149330139],"type":"VEC3"},{"bufferView":1,"componentType":5126,"count":296,"max":[0.9751787781715393,0.990922212600708,0.9923346638679504],"min":[-0.9900407791137695,-1,-0.9728359580039978],"type":"VEC3"},{"bufferView":2,"componentType":5126,"count":296,"max":[0.9059365391731262,0.734375],"min":[0.0022490117698907852,0],"type":"VEC2"},{"bufferView":3,"componentType":5123,"count":426,"max":[295],"min":[0],"type":"SCALAR"}],"materials":[{"pbrMetallicRoughness":{"metallicFactor":0,"roughnessFactor":1,"baseColorTexture":{"index":0}},"alphaMode":"MASK","alphaCutoff":0.05,"doubleSided":true}],"textures":[{"sampler":0,"source":0,"name":"ligustr"}],"samplers":[{"magFilter":9728,"minFilter":9728,"wrapS":33071,"wrapT":33071}],"images":[{"mimeType":"image/png","uri":"data:image/png;base64,"}],"meshes":[{"primitives":[{"mode":4,"attributes":{"POSITION":0,"NORMAL":1,"TEXCOORD_0":2},"indices":3,"material":0}]}]}