{"asset":{"version":"2.0","generator":"Blockbench 4.11.2 glTF exporter"},"scenes":[{"nodes":[10],"name":"blockbench_export"}],"scene":0,"nodes":[{"rotation":[0,0,-0.10235850603495576,0.9947475741323987],"translation":[0.0312367053056416,0.49594017270326907,-0.0001195318107706998],"name":"sphere","mesh":0},{"name":"cylinder","mesh":1},{"rotation":[-0.367321252322081,0.5259066660235527,-0.49495609282050573,0.5861021603819495],"translation":[4.5102810375396984e-17,4.423544863740858e-17,1.431146867680866e-17],"name":"plane","mesh":2},{"rotation":[-0.5686572002492007,0.8225372024021903,0.005833733483892423,0.005244694724912626],"translation":[4.5102810375396984e-17,4.423544863740858e-17,1.431146867680866e-17],"name":"plane","mesh":3},{"rotation":[0.36287729886239994,-0.5230542226569557,-0.47683375205061707,0.606105534570001],"translation":[4.5102810375396984e-17,4.423544863740858e-17,1.431146867680866e-17],"name":"plane","mesh":4},{"rotation":[0.016194524929567418,-0.015396456381975857,-0.6389692130888495,0.7689076870585961],"translation":[4.5102810375396984e-17,4.423544863740858e-17,1.431146867680866e-17],"name":"plane","mesh":5},{"rotation":[-0.12172609987951272,0.23000683553572676,-0.5972212592481478,0.758687273991742],"translation":[4.5102810375396984e-17,4.423544863740858e-17,1.431146867680866e-17],"name":"plane","mesh":6},{"rotation":[-0.5456833765969415,0.821568439605881,-0.03329530112977354,0.16169840590431267],"translation":[4.5102810375396984e-17,4.423544863740858e-17,1.431146867680866e-17],"name":"plane","mesh":7},{"rotation":[0.023056716656068288,-0.1611198861304409,-0.5924265509504728,0.7890117564645551],"translation":[4.5102810375396984e-17,4.423544863740858e-17,1.431146867680866e-17],"name":"plane","mesh":8},{"rotation":[-0.49310485353349826,0.7558835246717746,0.26198376894638065,-0.3418365184706448],"translation":[4.5102810375396984e-17,4.423544863740858e-17,1.431146867680866e-17],"name":"plane","mesh":9},{"children":[0,1,2,3,4,5,6,7,8,9]}],"bufferViews":[{"buffer":0,"byteOffset":0,"byteLength":2976,"target":34962,"byteStride":12},{"buffer":0,"byteOffset":2976,"byteLength":2976,"target":34962,"byteStride":12},{"buffer":0,"byteOffset":5952,"byteLength":1984,"target":34962,"byteStride":8},{"buffer":0,"byteOffset":7936,"byteLength":708,"target":34963},{"buffer":0,"byteOffset":8644,"byteLength":2112,"target":34962,"byteStride":12},{"buffer":0,"byteOffset":10756,"byteLength":2112,"target":34962,"byteStride":12},{"buffer":0,"byteOffset":12868,"byteLength":1408,"target":34962,"byteStride":8},{"buffer":0,"byteOffset":14276,"byteLength":480,"target":34963},{"buffer":0,"byteOffset":14756,"byteLength":456,"target":34962,"byteStride":12},{"buffer":0,"byteOffset":15212,"byteLength":456,"target":34962,"byteStride":12},{"buffer":0,"byteOffset":15668,"byteLength":304,"target":34962,"byteStride":8},{"buffer":0,"byteOffset":15972,"byteLength":108,"target":34963},{"buffer":0,"byteOffset":16080,"byteLength":456,"target":34962,"byteStride":12},{"buffer":0,"byteOffset":16536,"byteLength":456,"target":34962,"byteStride":12},{"buffer":0,"byteOffset":16992,"byteLength":304,"target":34962,"byteStride":8},{"buffer":0,"byteOffset":17296,"byteLength":108,"target":34963},{"buffer":0,"byteOffset":17404,"byteLength":456,"target":34962,"byteStride":12},{"buffer":0,"byteOffset":17860,"byteLength":456,"target":34962,"byteStride":12},{"buffer":0,"byteOffset":18316,"byteLength":304,"target":34962,"byteStride":8},{"buffer":0,"byteOffset":18620,"byteLength":108,"target":34963},{"buffer":0,"byteOffset":18728,"byteLength":456,"target":34962,"byteStride":12},{"buffer":0,"byteOffset":19184,"byteLength":456,"target":34962,"byteStride":12},{"buffer":0,"byteOffset":19640,"byteLength":304,"target":34962,"byteStride":8},{"buffer":0,"byteOffset":19944,"byteLength":108,"target":34963},{"buffer":0,"byteOffset":20052,"byteLength":456,"target":34962,"byteStride":12},{"buffer":0,"byteOffset":20508,"byteLength":456,"target":34962,"byteStride":12},{"buffer":0,"byteOffset":20964,"byteLength":304,"target":34962,"byteStride":8},{"buffer":0,"byteOffset":21268,"byteLength":108,"target":34963},{"buffer":0,"byteOffset":21376,"byteLength":456,"target":34962,"byteStride":12},{"buffer":0,"byteOffset":21832,"byteLength":456,"target":34962,"byteStride":12},{"buffer":0,"byteOffset":22288,"byteLength":304,"target":34962,"byteStride":8},{"buffer":0,"byteOffset":22592,"byteLength":108,"target":34963},{"buffer":0,"byteOffset":22700,"byteLength":456,"target":34962,"byteStride":12},{"buffer":0,"byteOffset":23156,"byteLength":456,"target":34962,"byteStride":12},{"buffer":0,"byteOffset":23612,"byteLength":304,"target":34962,"byteStride":8},{"buffer":0,"byteOffset":23916,"byteLength":108,"target":34963},{"buffer":0,"byteOffset":24024,"byteLength":456,"target":34962,"byteStride":12},{"buffer":0,"byteOffset":24480,"byteLength":456,"target":34962,"byteStride":12},{"buffer":0,"byteOffset":24936,"byteLength":304,"target":34962,"byteStride":8},{"buffer":0,"byteOffset":25240,"byteLength":108,"target":34963}],"buffers":[{"byteLength":25348,"uri":"data:application/octet-stream;base64,"}],"accessors":[{"bufferView":0,"componentType":5126,"count":248,"max":[0.1872648000717163,0.45833921432495117,0.17961663007736206],"min":[-0.1877351999282837,-0.010410793125629425,-0.19538336992263794],"type":"VEC3"},{"bufferView":1,"componentType":5126,"count":248,"max":[0.9925575852394104,0.9943125247955322,0.9978501200675964],"min":[-0.9929761290550232,-0.997947096824646,-0.9998573064804077],"type":"VEC3"},{"bufferView":2,"componentType":5126,"count":248,"max":[0.453125,0.439153790473938],"min":[0.0008968749898485839,0],"type":"VEC2"},{"bufferView":3,"componentType":5123,"count":354,"max":[247],"min":[0],"type":"SCALAR"},{"bufferView":4,"componentType":5126,"count":176,"max":[0.08976377546787262,0.5089441537857056,0.046875],"min":[-0.046875,0,-0.046875],"type":"VEC3"},{"bufferView":5,"componentType":5126,"count":176,"max":[1,0.9816271662712097,1],"min":[-1,-1,-1],"type":"VEC3"},{"bufferView":6,"componentType":5126,"count":176,"max":[0.43359375,0.5298140645027161],"min":[0.002957812510430813,0.234375],"type":"VEC2"},{"bufferView":7,"componentType":5123,"count":240,"max":[175],"min":[0],"type":"SCALAR"},{"bufferView":8,"componentType":5126,"count":38,"max":[-0.009322226978838444,-0.02311764657497406,0.06490158289670944],"min":[-0.5593222379684448,-0.06268855929374695,-0.06009841710329056],"type":"VEC3"},{"bufferView":9,"componentType":5126,"count":38,"max":[0.22771750390529633,0.9950371980667114,0.5009785294532776],"min":[0,0.8349642157554626,-0.5144957304000854],"type":"VEC3"},{"bufferView":10,"componentType":5126,"count":38,"max":[0.3424367606639862,0.09754997491836548],"min":[0.2044382244348526,0.0625],"type":"VEC2"},{"bufferView":11,"componentType":5123,"count":54,"max":[37],"min":[0],"type":"SCALAR"},{"bufferView":12,"componentType":5126,"count":38,"max":[-0.004095258191227913,-0.010535010136663914,0.06490158289670944],"min":[-0.5593222379684448,-0.06268855929374695,-0.06009841710329056],"type":"VEC3"},{"bufferView":13,"componentType":5126,"count":38,"max":[0.22771750390529633,0.9950371980667114,0.5009785294532776],"min":[0,0.6424351930618286,-0.7663400173187256],"type":"VEC3"},{"bufferView":14,"componentType":5126,"count":38,"max":[0.4205867648124695,0.15683436393737793],"min":[0.2825382351875305,0.09375],"type":"VEC2"},{"bufferView":15,"componentType":5123,"count":54,"max":[37],"min":[0],"type":"SCALAR"},{"bufferView":16,"componentType":5126,"count":38,"max":[-0.0034575338941067457,-0.007671251893043518,0.06490158289670944],"min":[-0.5593222379684448,-0.06268855929374695,-0.06009841710329056],"type":"VEC3"},{"bufferView":17,"componentType":5126,"count":38,"max":[0.22771750390529633,0.9950371980667114,0.5009785294532776],"min":[0,0.8349642157554626,-0.5144957304000854],"type":"VEC3"},{"bufferView":18,"componentType":5126,"count":38,"max":[0.3431703746318817,0.03504997491836548],"min":[0.20370464026927948,0],"type":"VEC2"},{"bufferView":19,"componentType":5123,"count":54,"max":[37],"min":[0],"type":"SCALAR"},{"bufferView":20,"componentType":5126,"count":38,"max":[-0.00827187579125166,-0.020443445071578026,0.06490158289670944],"min":[-0.5593222379684448,-0.06268855929374695,-0.06009841710329056],"type":"VEC3"},{"bufferView":21,"componentType":5126,"count":38,"max":[0.22771750390529633,0.9950371980667114,0.5009785294532776],"min":[0,0.5916630625724792,-0.8061853647232056],"type":"VEC3"},{"bufferView":22,"componentType":5126,"count":38,"max":[0.4370288848876953,0.29495519399642944],"min":[0.2825460433959961,0.1875],"type":"VEC2"},{"bufferView":23,"componentType":5123,"count":54,"max":[37],"min":[0],"type":"SCALAR"},{"bufferView":24,"componentType":5126,"count":38,"max":[-0.0055045075714588165,-0.01657417230308056,0.06490158289670944],"min":[-0.5593222379684448,-0.06268855929374695,-0.06009841710329056],"type":"VEC3"},{"bufferView":25,"componentType":5126,"count":38,"max":[0.22771750390529633,0.9950371980667114,0.5009785294532776],"min":[0,0.7084456086158752,-0.7057653665542603],"type":"VEC3"},{"bufferView":26,"componentType":5126,"count":38,"max":[0.4518117606639862,0.34433436393737793],"min":[0.3138132393360138,0.09375],"type":"VEC2"},{"bufferView":27,"componentType":5123,"count":54,"max":[37],"min":[0],"type":"SCALAR"},{"bufferView":28,"componentType":5126,"count":38,"max":[-0.009127331897616386,-0.02515856921672821,0.06490158289670944],"min":[-0.5593222379684448,-0.06268855929374695,-0.06009841710329056],"type":"VEC3"},{"bufferView":29,"componentType":5126,"count":38,"max":[0.22771750390529633,0.9950371980667114,0.5009785294532776],"min":[0,0.7701585292816162,-0.6378525495529175],"type":"VEC3"},{"bufferView":30,"componentType":5126,"count":38,"max":[0.3125,0.31308436393737793],"min":[0.0012882313458248973,0.234375],"type":"VEC2"},{"bufferView":31,"componentType":5123,"count":54,"max":[37],"min":[0],"type":"SCALAR"},{"bufferView":32,"componentType":5126,"count":38,"max":[-0.009184629656374454,-0.02258833311498165,0.06490158289670944],"min":[-0.5593222379684448,-0.06993412971496582,-0.06009841710329056],"type":"VEC3"},{"bufferView":33,"componentType":5126,"count":38,"max":[0.22771750390529633,0.9950371980667114,0.5009785294532776],"min":[0,0.6894746422767639,-0.7221714854240417],"type":"VEC3"},{"bufferView":34,"componentType":5126,"count":38,"max":[0.4366988241672516,0.3913673162460327],"min":[0.12653015553951263,0.328125],"type":"VEC2"},{"bufferView":35,"componentType":5123,"count":54,"max":[37],"min":[0],"type":"SCALAR"},{"bufferView":36,"componentType":5126,"count":38,"max":[-0.002862070221453905,-0.006859037093818188,0.06490158289670944],"min":[-0.5593222379684448,-0.06727094203233719,-0.06009841710329056],"type":"VEC3"},{"bufferView":37,"componentType":5126,"count":38,"max":[0.22771750390529633,0.9950371980667114,0.5009785294532776],"min":[-0.186404287815094,0.8003008961677551,-0.569887638092041],"type":"VEC3"},{"bufferView":38,"componentType":5126,"count":38,"max":[0.33619511127471924,0.29928088188171387],"min":[0.19505490362644196,0.265625],"type":"VEC2"},{"bufferView":39,"componentType":5123,"count":54,"max":[37],"min":[0],"type":"SCALAR"}],"materials":[{"pbrMetallicRoughness":{"metallicFactor":0,"roughnessFactor":1,"baseColorTexture":{"index":0}},"alphaMode":"MASK","alphaCutoff":0.05,"doubleSided":true}],"textures":[{"sampler":0,"source":0,"name":"hiacynt"}],"samplers":[{"magFilter":9728,"minFilter":9728,"wrapS":33071,"wrapT":33071}],"images":[{"mimeType":"image/png","uri":"data:image/png;base64,"}],"meshes":[{"primitives":[{"mode":4,"attributes":{"POSITION":0,"NORMAL":1,"TEXCOORD_0":2},"indices":3,"material":0}]},{"primitives":[{"mode":4,"attributes":{"POSITION":4,"NORMAL":5,"TEXCOORD_0":6},"indices":7,"material":0}]},{"primitives":[{"mode":4,"attributes":{"POSITION":8,"NORMAL":9,"TEXCOORD_0":10},"indices":11,"material":0}]},{"primitives":[{"mode":4,"attributes":{"POSITION":12,"NORMAL":13,"TEXCOORD_0":14},"indices":15,"material":0}]},{"primitives":[{"mode":4,"attributes":{"POSITION":16,"NORMAL":17,"TEXCOORD_0":18},"indices":19,"material":0}]},{"primitives":[{"mode":4,"attributes":{"POSITION":20,"NORMAL":21,"TEXCOORD_0":22},"indices":23,"material":0}]},{"primitives":[{"mode":4,"attributes":{"POSITION":24,"NORMAL":25,"TEXCOORD_0":26},"indices":27,"material":0}]},{"primitives":[{"mode":4,"attributes":{"POSITION":28,"NORMAL":29,"TEXCOORD_0":30},"indices":31,"material":0}]},{"primitives":[{"mode":4,"attributes":{"POSITION":32,"NORMAL":33,"TEXCOORD_0":34},"indices":35,"material":0}]},{"primitives":[{"mode":4,"attributes":{"POSITION":36,"NORMAL":37,"TEXCOORD_0":38},"indices":39,"material":0}]}]}