{"asset":{"version":"2.0","generator":"Blockbench 4.11.2 glTF exporter"},"scenes":[{"nodes":[3],"name":"blockbench_export"}],"scene":0,"nodes":[{"translation":[-0.018750000000000003,-1.2812499999999998,0],"name":"cone","mesh":0},{"translation":[-0.018750000000000003,-0.7312500000000004,0],"name":"sphere","mesh":1},{"translation":[0.018750000000000003,1.2812499999999998,0],"name":"1","children":[0,1]},{"children":[2]}],"bufferViews":[{"buffer":0,"byteOffset":0,"byteLength":672,"target":34962,"byteStride":12},{"buffer":0,"byteOffset":672,"byteLength":672,"target":34962,"byteStride":12},{"buffer":0,"byteOffset":1344,"byteLength":448,"target":34962,"byteStride":8},{"buffer":0,"byteOffset":1792,"byteLength":144,"target":34963},{"buffer":0,"byteOffset":1936,"byteLength":3312,"target":34962,"byteStride":12},{"buffer":0,"byteOffset":5248,"byteLength":3312,"target":34962,"byteStride":12},{"buffer":0,"byteOffset":8560,"byteLength":2208,"target":34962,"byteStride":8},{"buffer":0,"byteOffset":10768,"byteLength":792,"target":34963}],"buffers":[{"byteLength":11560,"uri":"data:application/octet-stream;base64,"}],"accessors":[{"bufferView":0,"componentType":5126,"count":56,"max":[0.28125,0.5035998225212097,0.28125],"min":[-0.28125,0,-0.28125],"type":"VEC3"},{"bufferView":1,"componentType":5126,"count":56,"max":[0.9808638095855713,0.2668907642364502,0.9731630086898804],"min":[-0.9637267589569092,-1,-0.9726749062538147],"type":"VEC3"},{"bufferView":2,"componentType":5126,"count":56,"max":[0.7460479736328125,0.7430234551429749],"min":[0,0.078125],"type":"VEC2"},{"bufferView":3,"componentType":5123,"count":72,"max":[55],"min":[0],"type":"SCALAR"},{"bufferView":4,"componentType":5126,"count":276,"max":[0.6792047023773193,0.5477573275566101,0.7437499761581421],"min":[-0.7250000238418579,-0.46875,-0.7562500238418579],"type":"VEC3"},{"bufferView":5,"componentType":5126,"count":276,"max":[0.9989237785339355,0.9926746487617493,0.9877976775169373],"min":[-0.9562997221946716,-0.9523599743843079,-0.9075369834899902],"type":"VEC3"},{"bufferView":6,"componentType":5126,"count":276,"max":[0.7900897860527039,0.765625],"min":[0.001210525049827993,0],"type":"VEC2"},{"bufferView":7,"componentType":5123,"count":396,"max":[275],"min":[0],"type":"SCALAR"}],"materials":[{"pbrMetallicRoughness":{"metallicFactor":0,"roughnessFactor":1,"baseColorTexture":{"index":0}},"alphaMode":"MASK","alphaCutoff":0.05,"doubleSided":true}],"textures":[{"sampler":0,"source":0,"name":"forsycja.png"}],"samplers":[{"magFilter":9728,"minFilter":9728,"wrapS":33071,"wrapT":33071}],"images":[{"mimeType":"image/png","uri":"data:image/png;base64,"}],"meshes":[{"primitives":[{"mode":4,"attributes":{"POSITION":0,"NORMAL":1,"TEXCOORD_0":2},"indices":3,"material":0}]},{"primitives":[{"mode":4,"attributes":{"POSITION":4,"NORMAL":5,"TEXCOORD_0":6},"indices":7,"material":0}]}]}