{"asset":{"version":"2.0","generator":"Blockbench 4.11.2 glTF exporter"},"scenes":[{"nodes":[10],"name":"blockbench_export"}],"scene":0,"nodes":[{"name":"cylinder","mesh":0},{"rotation":[0,0,-0.7040147244559685,0.7101853756232852],"translation":[0.26562499999999983,1.1749999999999998,0],"name":"plane","mesh":1},{"rotation":[0,0,0.7253743710122885,0.6883545756937531],"translation":[0.26562499999999983,1.1750000000000003,0],"name":"plane","mesh":2},{"rotation":[0.3945578546221425,-0.3911296245152328,0.6154688794807922,0.5590525687028041],"translation":[0.26562499999999983,1.1750000000000003,0],"name":"plane","mesh":3},{"rotation":[-0.41441618971105376,0.37048264739326814,0.6157173814539065,0.5584746510463944],"translation":[0.26562499999999983,1.1750000000000003,0],"name":"plane","mesh":4},{"rotation":[0.564402192718953,-0.610566852225524,0.42714563580027054,0.3552532753321709],"translation":[0.26562499999999983,1.1750000000000003,0],"name":"plane","mesh":5},{"rotation":[-0.5945983792276527,0.6394096410370175,0.36785617908191914,0.3198279379291497],"translation":[0.26562499999999983,1.1750000000000003,0],"name":"plane","mesh":6},{"rotation":[0,0,-0.7071067811865475,0.7071067811865476],"translation":[0.28281250000000036,1.1750000000000016,0],"name":"tube","mesh":7},{"rotation":[-0.40396323409800616,0.3542662482183842,-0.5560866202879232,0.6340952622493757],"translation":[-0.07499999999999996,0,0],"name":"plane","mesh":8},{"rotation":[0.3825592365290323,-0.5581715140811404,-0.41566299511000243,0.6077147899392223],"translation":[-0.07499999999999998,0,0],"name":"plane","mesh":9},{"children":[0,1,2,3,4,5,6,7,8,9]}],"bufferViews":[{"buffer":0,"byteOffset":0,"byteLength":3120,"target":34962,"byteStride":12},{"buffer":0,"byteOffset":3120,"byteLength":3120,"target":34962,"byteStride":12},{"buffer":0,"byteOffset":6240,"byteLength":2080,"target":34962,"byteStride":8},{"buffer":0,"byteOffset":8320,"byteLength":756,"target":34963},{"buffer":0,"byteOffset":9076,"byteLength":720,"target":34962,"byteStride":12},{"buffer":0,"byteOffset":9796,"byteLength":720,"target":34962,"byteStride":12},{"buffer":0,"byteOffset":10516,"byteLength":480,"target":34962,"byteStride":8},{"buffer":0,"byteOffset":10996,"byteLength":168,"target":34963},{"buffer":0,"byteOffset":11164,"byteLength":720,"target":34962,"byteStride":12},{"buffer":0,"byteOffset":11884,"byteLength":720,"target":34962,"byteStride":12},{"buffer":0,"byteOffset":12604,"byteLength":480,"target":34962,"byteStride":8},{"buffer":0,"byteOffset":13084,"byteLength":168,"target":34963},{"buffer":0,"byteOffset":13252,"byteLength":720,"target":34962,"byteStride":12},{"buffer":0,"byteOffset":13972,"byteLength":720,"target":34962,"byteStride":12},{"buffer":0,"byteOffset":14692,"byteLength":480,"target":34962,"byteStride":8},{"buffer":0,"byteOffset":15172,"byteLength":168,"target":34963},{"buffer":0,"byteOffset":15340,"byteLength":720,"target":34962,"byteStride":12},{"buffer":0,"byteOffset":16060,"byteLength":720,"target":34962,"byteStride":12},{"buffer":0,"byteOffset":16780,"byteLength":480,"target":34962,"byteStride":8},{"buffer":0,"byteOffset":17260,"byteLength":168,"target":34963},{"buffer":0,"byteOffset":17428,"byteLength":720,"target":34962,"byteStride":12},{"buffer":0,"byteOffset":18148,"byteLength":720,"target":34962,"byteStride":12},{"buffer":0,"byteOffset":18868,"byteLength":480,"target":34962,"byteStride":8},{"buffer":0,"byteOffset":19348,"byteLength":168,"target":34963},{"buffer":0,"byteOffset":19516,"byteLength":720,"target":34962,"byteStride":12},{"buffer":0,"byteOffset":20236,"byteLength":720,"target":34962,"byteStride":12},{"buffer":0,"byteOffset":20956,"byteLength":480,"target":34962,"byteStride":8},{"buffer":0,"byteOffset":21436,"byteLength":168,"target":34963},{"buffer":0,"byteOffset":21604,"byteLength":768,"target":34962,"byteStride":12},{"buffer":0,"byteOffset":22372,"byteLength":768,"target":34962,"byteStride":12},{"buffer":0,"byteOffset":23140,"byteLength":512,"target":34962,"byteStride":8},{"buffer":0,"byteOffset":23652,"byteLength":192,"target":34963},{"buffer":0,"byteOffset":23844,"byteLength":456,"target":34962,"byteStride":12},{"buffer":0,"byteOffset":24300,"byteLength":456,"target":34962,"byteStride":12},{"buffer":0,"byteOffset":24756,"byteLength":304,"target":34962,"byteStride":8},{"buffer":0,"byteOffset":25060,"byteLength":108,"target":34963},{"buffer":0,"byteOffset":25168,"byteLength":456,"target":34962,"byteStride":12},{"buffer":0,"byteOffset":25624,"byteLength":456,"target":34962,"byteStride":12},{"buffer":0,"byteOffset":26080,"byteLength":304,"target":34962,"byteStride":8},{"buffer":0,"byteOffset":26384,"byteLength":108,"target":34963}],"buffers":[{"byteLength":26492,"uri":"data:application/octet-stream;base64,"}],"accessors":[{"bufferView":0,"componentType":5126,"count":260,"max":[0.26875001192092896,1.2062499523162842,0.03125],"min":[-0.11249999701976776,0,-0.03125],"type":"VEC3"},{"bufferView":1,"componentType":5126,"count":260,"max":[1,1,1],"min":[-0.9999980330467224,-0.9659880995750427,-1],"type":"VEC3"},{"bufferView":2,"componentType":5126,"count":260,"max":[0.625,0.9456809759140015],"min":[0,0],"type":"VEC2"},{"bufferView":3,"componentType":5123,"count":378,"max":[259],"min":[0],"type":"SCALAR"},{"bufferView":4,"componentType":5126,"count":60,"max":[4.3021142204224816e-16,0.02656250074505806,0.08124999701976776],"min":[-0.23125000298023224,0,-0.08124999701976776],"type":"VEC3"},{"bufferView":5,"componentType":5126,"count":60,"max":[0.2502031922340393,0.9899893999099731,0.2533456087112427],"min":[-0.20318745076656342,0.9503852128982544,-0.2724880576133728],"type":"VEC3"},{"bufferView":6,"componentType":5126,"count":60,"max":[0.8284496665000916,0.802097737789154],"min":[0.5749753713607788,0.375],"type":"VEC2"},{"bufferView":7,"componentType":5123,"count":84,"max":[59],"min":[0],"type":"SCALAR"},{"bufferView":8,"componentType":5126,"count":60,"max":[4.3021142204224816e-16,0,0.08124999701976776],"min":[-0.23125000298023224,-0.02656250074505806,-0.08124999701976776],"type":"VEC3"},{"bufferView":9,"componentType":5126,"count":60,"max":[0.2502031922340393,-0.9503852128982544,0.2533456087112427],"min":[-0.20318745076656342,-0.9899893999099731,-0.2724880576133728],"type":"VEC3"},{"bufferView":10,"componentType":5126,"count":60,"max":[0.7142547965049744,0.46875],"min":[0.5982452034950256,0.38580912351608276],"type":"VEC2"},{"bufferView":11,"componentType":5123,"count":84,"max":[59],"min":[0],"type":"SCALAR"},{"bufferView":12,"componentType":5126,"count":60,"max":[4.3021142204224816e-16,0,0.08124999701976776],"min":[-0.23125000298023224,-0.02656250074505806,-0.08124999701976776],"type":"VEC3"},{"bufferView":13,"componentType":5126,"count":60,"max":[0.2502031922340393,-0.9503852128982544,0.2533456087112427],"min":[-0.20318745076656342,-0.9899893999099731,-0.2724880576133728],"type":"VEC3"},{"bufferView":14,"componentType":5126,"count":60,"max":[0.7767547965049744,0.21875],"min":[0.6607452034950256,0.13580912351608276],"type":"VEC2"},{"bufferView":15,"componentType":5123,"count":84,"max":[59],"min":[0],"type":"SCALAR"},{"bufferView":16,"componentType":5126,"count":60,"max":[4.3021142204224816e-16,0,0.08124999701976776],"min":[-0.23125000298023224,-0.02656250074505806,-0.08124999701976776],"type":"VEC3"},{"bufferView":17,"componentType":5126,"count":60,"max":[0.2502031922340393,-0.9503852128982544,0.2533456087112427],"min":[-0.20318745076656342,-0.9899893999099731,-0.2724880576133728],"type":"VEC3"},{"bufferView":18,"componentType":5126,"count":60,"max":[0.7767547965049744,0.34375],"min":[0.6607452034950256,0.26080912351608276],"type":"VEC2"},{"bufferView":19,"componentType":5123,"count":84,"max":[59],"min":[0],"type":"SCALAR"},{"bufferView":20,"componentType":5126,"count":60,"max":[4.3021142204224816e-16,0,0.08124999701976776],"min":[-0.23125000298023224,-0.02656250074505806,-0.08124999701976776],"type":"VEC3"},{"bufferView":21,"componentType":5126,"count":60,"max":[0.2502031922340393,-0.9503852128982544,0.2533456087112427],"min":[-0.20318745076656342,-0.9899893999099731,-0.2724880576133728],"type":"VEC3"},{"bufferView":22,"componentType":5126,"count":60,"max":[0.8080047965049744,0.59375],"min":[0.6919952034950256,0.5108091831207275],"type":"VEC2"},{"bufferView":23,"componentType":5123,"count":84,"max":[59],"min":[0],"type":"SCALAR"},{"bufferView":24,"componentType":5126,"count":60,"max":[4.3021142204224816e-16,0,0.08124999701976776],"min":[-0.23125000298023224,-0.02656250074505806,-0.08124999701976776],"type":"VEC3"},{"bufferView":25,"componentType":5126,"count":60,"max":[0.2502031922340393,-0.9503852128982544,0.2533456087112427],"min":[-0.20318745076656342,-0.9899893999099731,-0.2724880576133728],"type":"VEC3"},{"bufferView":26,"componentType":5126,"count":60,"max":[0.8080047965049744,0.71875],"min":[0.6919952034950256,0.6358091831207275],"type":"VEC2"},{"bufferView":27,"componentType":5123,"count":84,"max":[59],"min":[0],"type":"SCALAR"},{"bufferView":28,"componentType":5126,"count":64,"max":[0.08327451348304749,0.125,0.08327451348304749],"min":[-0.08327451348304749,0,-0.08327451348304749],"type":"VEC3"},{"bufferView":29,"componentType":5126,"count":64,"max":[0.9987523555755615,0.5830104947090149,0.9987523555755615],"min":[-0.9987523555755615,0.049937617033720016,-0.9987523555755615],"type":"VEC3"},{"bufferView":30,"componentType":5126,"count":64,"max":[0.90625,0.9084749817848206],"min":[0.5765030980110168,0.125],"type":"VEC2"},{"bufferView":31,"componentType":5123,"count":96,"max":[63],"min":[0],"type":"SCALAR"},{"bufferView":32,"componentType":5126,"count":38,"max":[-0.006526309531182051,-0.012072242796421051,0.0625],"min":[-1.0065263509750366,-0.04957224428653717,-0.0625],"type":"VEC3"},{"bufferView":33,"componentType":5126,"count":38,"max":[0.12757296860218048,0.9950371980667114,0.5102918744087219],"min":[0,0.8504865169525146,-0.5144957304000854],"type":"VEC3"},{"bufferView":34,"componentType":5126,"count":38,"max":[0.9846526980400085,0.07262498140335083],"min":[0.48409727215766907,0],"type":"VEC2"},{"bufferView":35,"componentType":5123,"count":54,"max":[37],"min":[0],"type":"SCALAR"},{"bufferView":36,"componentType":5126,"count":38,"max":[-0.011323332786560059,0.02333008497953415,0.0625],"min":[-0.9668281078338623,-0.19518381357192993,-0.0625],"type":"VEC3"},{"bufferView":37,"componentType":5126,"count":38,"max":[0.20248574018478394,0.9939512610435486,0.627750039100647],"min":[-0.5111770629882812,0.6915925145149231,-0.5102918744087219],"type":"VEC3"},{"bufferView":38,"componentType":5126,"count":38,"max":[0.933941662311554,0.8615732192993164],"min":[0.22611407935619354,0],"type":"VEC2"},{"bufferView":39,"componentType":5123,"count":54,"max":[37],"min":[0],"type":"SCALAR"}],"materials":[{"pbrMetallicRoughness":{"metallicFactor":0,"roughnessFactor":1,"baseColorTexture":{"index":0}},"alphaMode":"MASK","alphaCutoff":0.05,"doubleSided":true}],"textures":[{"sampler":0,"source":0,"name":"zonkil"}],"samplers":[{"magFilter":9728,"minFilter":9728,"wrapS":33071,"wrapT":33071}],"images":[{"mimeType":"image/png","uri":"data:image/png;base64,"}],"meshes":[{"primitives":[{"mode":4,"attributes":{"POSITION":0,"NORMAL":1,"TEXCOORD_0":2},"indices":3,"material":0}]},{"primitives":[{"mode":4,"attributes":{"POSITION":4,"NORMAL":5,"TEXCOORD_0":6},"indices":7,"material":0}]},{"primitives":[{"mode":4,"attributes":{"POSITION":8,"NORMAL":9,"TEXCOORD_0":10},"indices":11,"material":0}]},{"primitives":[{"mode":4,"attributes":{"POSITION":12,"NORMAL":13,"TEXCOORD_0":14},"indices":15,"material":0}]},{"primitives":[{"mode":4,"attributes":{"POSITION":16,"NORMAL":17,"TEXCOORD_0":18},"indices":19,"material":0}]},{"primitives":[{"mode":4,"attributes":{"POSITION":20,"NORMAL":21,"TEXCOORD_0":22},"indices":23,"material":0}]},{"primitives":[{"mode":4,"attributes":{"POSITION":24,"NORMAL":25,"TEXCOORD_0":26},"indices":27,"material":0}]},{"primitives":[{"mode":4,"attributes":{"POSITION":28,"NORMAL":29,"TEXCOORD_0":30},"indices":31,"material":0}]},{"primitives":[{"mode":4,"attributes":{"POSITION":32,"NORMAL":33,"TEXCOORD_0":34},"indices":35,"material":0}]},{"primitives":[{"mode":4,"attributes":{"POSITION":36,"NORMAL":37,"TEXCOORD_0":38},"indices":39,"material":0}]}]}