{"asset":{"version":"2.0","generator":"Blockbench 4.11.2 glTF exporter"},"scenes":[{"nodes":[13],"name":"blockbench_export"}],"scene":0,"nodes":[{"translation":[0.12500000000000017,0.6500000000000006,0],"name":"bone"},{"name":"cylinder","mesh":0},{"rotation":[0.5309021434920993,-0.14247595084069514,-0.14800113163439144,0.8221552058476999],"translation":[0.08124999999999996,0.5750000000000001,3.469446951953614e-18],"name":"plane","mesh":1},{"rotation":[0.25246373726196497,-0.6558732107563767,0.27724017485137753,0.6551566821976409],"translation":[0.08124999999999996,0.5750000000000001,3.469446951953614e-18],"name":"plane","mesh":2},{"rotation":[0.49927205380935585,0.4841325324533885,-0.5221565609659284,0.4936553789289557],"translation":[0.09375000000000007,0.5750000000000001,-0.006249999999999997],"name":"plane","mesh":3},{"rotation":[-0.5395475124775891,0.10509502515205697,-0.20499125634655188,0.8098284400346757],"translation":[0.08124999999999996,0.5750000000000001,0],"name":"plane","mesh":4},{"rotation":[0.35140742449972245,-0.47921888171000354,0.06705565708855152,0.8014771514344674],"translation":[0.08124999999999996,0.5750000000000001,3.469446951953614e-18],"name":"plane","mesh":5},{"rotation":[0.5089420696060782,0.19064968722855946,-0.34162230676468164,0.7667625878102765],"translation":[0.09375000000000007,0.5750000000000001,-0.006249999999999997],"name":"plane","mesh":6},{"rotation":[-0.4964092371370972,-0.2823752371534664,-0.394846693846568,0.7196792223525167],"translation":[0.08124999999999996,0.5750000000000001,0],"name":"plane","mesh":7},{"rotation":[-0.011572747401656203,-0.8320279534837524,0.40552014545924525,0.3783503241255766],"translation":[0.08124999999999996,0.5750000000000001,3.469446951953614e-18],"name":"plane","mesh":8},{"rotation":[0,0,0.46174861323503386,0.8870108331782217],"translation":[0.12500000000000017,0.6500000000000006,0],"name":"plane","mesh":9},{"rotation":[0,0,-0.19509032201612825,0.9807852804032304],"translation":[0.090625,0.59375,-2.8189256484623115e-18],"name":"tube","mesh":10},{"name":"cylinder","mesh":11},{"children":[0,1,2,3,4,5,6,7,8,9,10,11,12]}],"bufferViews":[{"buffer":0,"byteOffset":0,"byteLength":2496,"target":34962,"byteStride":12},{"buffer":0,"byteOffset":2496,"byteLength":2496,"target":34962,"byteStride":12},{"buffer":0,"byteOffset":4992,"byteLength":1664,"target":34962,"byteStride":8},{"buffer":0,"byteOffset":6656,"byteLength":576,"target":34963},{"buffer":0,"byteOffset":7232,"byteLength":384,"target":34962,"byteStride":12},{"buffer":0,"byteOffset":7616,"byteLength":384,"target":34962,"byteStride":12},{"buffer":0,"byteOffset":8000,"byteLength":256,"target":34962,"byteStride":8},{"buffer":0,"byteOffset":8256,"byteLength":96,"target":34963},{"buffer":0,"byteOffset":8352,"byteLength":384,"target":34962,"byteStride":12},{"buffer":0,"byteOffset":8736,"byteLength":384,"target":34962,"byteStride":12},{"buffer":0,"byteOffset":9120,"byteLength":256,"target":34962,"byteStride":8},{"buffer":0,"byteOffset":9376,"byteLength":96,"target":34963},{"buffer":0,"byteOffset":9472,"byteLength":384,"target":34962,"byteStride":12},{"buffer":0,"byteOffset":9856,"byteLength":384,"target":34962,"byteStride":12},{"buffer":0,"byteOffset":10240,"byteLength":256,"target":34962,"byteStride":8},{"buffer":0,"byteOffset":10496,"byteLength":96,"target":34963},{"buffer":0,"byteOffset":10592,"byteLength":384,"target":34962,"byteStride":12},{"buffer":0,"byteOffset":10976,"byteLength":384,"target":34962,"byteStride":12},{"buffer":0,"byteOffset":11360,"byteLength":256,"target":34962,"byteStride":8},{"buffer":0,"byteOffset":11616,"byteLength":96,"target":34963},{"buffer":0,"byteOffset":11712,"byteLength":384,"target":34962,"byteStride":12},{"buffer":0,"byteOffset":12096,"byteLength":384,"target":34962,"byteStride":12},{"buffer":0,"byteOffset":12480,"byteLength":256,"target":34962,"byteStride":8},{"buffer":0,"byteOffset":12736,"byteLength":96,"target":34963},{"buffer":0,"byteOffset":12832,"byteLength":384,"target":34962,"byteStride":12},{"buffer":0,"byteOffset":13216,"byteLength":384,"target":34962,"byteStride":12},{"buffer":0,"byteOffset":13600,"byteLength":256,"target":34962,"byteStride":8},{"buffer":0,"byteOffset":13856,"byteLength":96,"target":34963},{"buffer":0,"byteOffset":13952,"byteLength":384,"target":34962,"byteStride":12},{"buffer":0,"byteOffset":14336,"byteLength":384,"target":34962,"byteStride":12},{"buffer":0,"byteOffset":14720,"byteLength":256,"target":34962,"byteStride":8},{"buffer":0,"byteOffset":14976,"byteLength":96,"target":34963},{"buffer":0,"byteOffset":15072,"byteLength":384,"target":34962,"byteStride":12},{"buffer":0,"byteOffset":15456,"byteLength":384,"target":34962,"byteStride":12},{"buffer":0,"byteOffset":15840,"byteLength":256,"target":34962,"byteStride":8},{"buffer":0,"byteOffset":16096,"byteLength":96,"target":34963},{"buffer":0,"byteOffset":16192,"byteLength":48,"target":34962,"byteStride":12},{"buffer":0,"byteOffset":16240,"byteLength":48,"target":34962,"byteStride":12},{"buffer":0,"byteOffset":16288,"byteLength":32,"target":34962,"byteStride":8},{"buffer":0,"byteOffset":16320,"byteLength":12,"target":34963},{"buffer":0,"byteOffset":16332,"byteLength":1536,"target":34962,"byteStride":12},{"buffer":0,"byteOffset":17868,"byteLength":1536,"target":34962,"byteStride":12},{"buffer":0,"byteOffset":19404,"byteLength":1024,"target":34962,"byteStride":8},{"buffer":0,"byteOffset":20428,"byteLength":384,"target":34963},{"buffer":0,"byteOffset":20812,"byteLength":1728,"target":34962,"byteStride":12},{"buffer":0,"byteOffset":22540,"byteLength":1728,"target":34962,"byteStride":12},{"buffer":0,"byteOffset":24268,"byteLength":1152,"target":34962,"byteStride":8},{"buffer":0,"byteOffset":25420,"byteLength":384,"target":34963}],"buffers":[{"byteLength":25804,"uri":"data:application/octet-stream;base64,"}],"accessors":[{"bufferView":0,"componentType":5126,"count":208,"max":[0.13512124121189117,0.6369588375091553,0.03125],"min":[-0.03125,0,-0.03125],"type":"VEC3"},{"bufferView":1,"componentType":5126,"count":208,"max":[1,0.9238795042037964,1],"min":[-1,-1,-1],"type":"VEC3"},{"bufferView":2,"componentType":5126,"count":208,"max":[0.46875,0.5479828119277954],"min":[0.004576562438160181,0.03125],"type":"VEC2"},{"bufferView":3,"componentType":5123,"count":288,"max":[207],"min":[0],"type":"SCALAR"},{"bufferView":4,"componentType":5126,"count":32,"max":[0.12782268226146698,-0.004864352289587259,-0.010760013945400715],"min":[-0.12217731773853302,-0.04236435145139694,-0.5107600092887878],"type":"VEC3"},{"bufferView":5,"componentType":5126,"count":32,"max":[0.3158726096153259,0.9847835302352905,0.14400461316108704],"min":[-0.2873478829860687,0.9476178288459778,-0.049179594963788986],"type":"VEC3"},{"bufferView":6,"componentType":5126,"count":32,"max":[0.28932061791419983,0.06513208150863647],"min":[0.16380438208580017,0],"type":"VEC2"},{"bufferView":7,"componentType":5123,"count":48,"max":[31],"min":[0],"type":"SCALAR"},{"bufferView":8,"componentType":5126,"count":32,"max":[0.12782268226146698,-0.004864352289587259,-0.010760013945400715],"min":[-0.12217731773853302,-0.04236435145139694,-0.5107600092887878],"type":"VEC3"},{"bufferView":9,"componentType":5126,"count":32,"max":[0.3158726096153259,0.9847835302352905,0.14400461316108704],"min":[-0.2873478829860687,0.9476178288459778,-0.049179594963788986],"type":"VEC3"},{"bufferView":10,"componentType":5126,"count":32,"max":[0.33619561791419983,0.2995070815086365],"min":[0.21067938208580017,0.234375],"type":"VEC2"},{"bufferView":11,"componentType":5123,"count":48,"max":[31],"min":[0],"type":"SCALAR"},{"bufferView":12,"componentType":5126,"count":32,"max":[0.12217731773853302,-0.004864352289587259,-0.010760013945400715],"min":[-0.12782268226146698,-0.04236435145139694,-0.5107600092887878],"type":"VEC3"},{"bufferView":13,"componentType":5126,"count":32,"max":[0.2873478829860687,0.9847835302352905,0.14400461316108704],"min":[-0.3158726096153259,0.9476178288459778,-0.049179594963788986],"type":"VEC3"},{"bufferView":14,"componentType":5126,"count":32,"max":[0.13307185471057892,0.06525081396102905],"min":[0.007553150411695242,0],"type":"VEC2"},{"bufferView":15,"componentType":5123,"count":48,"max":[31],"min":[0],"type":"SCALAR"},{"bufferView":16,"componentType":5126,"count":32,"max":[0.12782268226146698,-0.004864352289587259,0.5107600092887878],"min":[-0.12217731773853302,-0.04236435145139694,0.010760013945400715],"type":"VEC3"},{"bufferView":17,"componentType":5126,"count":32,"max":[0.3158726096153259,0.9847835302352905,0.049179594963788986],"min":[-0.2873478829860687,0.9476178288459778,-0.14400461316108704],"type":"VEC3"},{"bufferView":18,"componentType":5126,"count":32,"max":[0.21119685471057892,0.14337581396102905],"min":[0.08567815274000168,0.078125],"type":"VEC2"},{"bufferView":19,"componentType":5123,"count":48,"max":[31],"min":[0],"type":"SCALAR"},{"bufferView":20,"componentType":5126,"count":32,"max":[0.12782268226146698,-0.004864352289587259,-0.010760013945400715],"min":[-0.12217731773853302,-0.04236435145139694,-0.5107600092887878],"type":"VEC3"},{"bufferView":21,"componentType":5126,"count":32,"max":[0.3158726096153259,0.9847835302352905,0.14400461316108704],"min":[-0.2873478829860687,0.9476178288459778,-0.049179594963788986],"type":"VEC3"},{"bufferView":22,"componentType":5126,"count":32,"max":[0.17994561791419983,0.3151320815086365],"min":[0.05442938208580017,0.25],"type":"VEC2"},{"bufferView":23,"componentType":5123,"count":48,"max":[31],"min":[0],"type":"SCALAR"},{"bufferView":24,"componentType":5126,"count":32,"max":[0.12217731773853302,-0.004864352289587259,-0.010760013945400715],"min":[-0.12782268226146698,-0.04236435145139694,-0.5107600092887878],"type":"VEC3"},{"bufferView":25,"componentType":5126,"count":32,"max":[0.2873478829860687,0.9847835302352905,0.14400461316108704],"min":[-0.3158726096153259,0.9476178288459778,-0.049179594963788986],"type":"VEC3"},{"bufferView":26,"componentType":5126,"count":32,"max":[0.2893218398094177,0.22150081396102905],"min":[0.16380314528942108,0.15625],"type":"VEC2"},{"bufferView":27,"componentType":5123,"count":48,"max":[31],"min":[0],"type":"SCALAR"},{"bufferView":28,"componentType":5126,"count":32,"max":[0.12782268226146698,-0.004864352289587259,0.5107600092887878],"min":[-0.12217731773853302,-0.04236435145139694,0.010760013945400715],"type":"VEC3"},{"bufferView":29,"componentType":5126,"count":32,"max":[0.3158726096153259,0.9847835302352905,0.049179594963788986],"min":[-0.2873478829860687,0.9476178288459778,-0.14400461316108704],"type":"VEC3"},{"bufferView":30,"componentType":5126,"count":32,"max":[0.13307185471057892,0.23712581396102905],"min":[0.007553150411695242,0.171875],"type":"VEC2"},{"bufferView":31,"componentType":5123,"count":48,"max":[31],"min":[0],"type":"SCALAR"},{"bufferView":32,"componentType":5126,"count":32,"max":[0.12782268226146698,-0.004864352289587259,-0.010760013945400715],"min":[-0.12217731773853302,-0.04236435145139694,-0.5107600092887878],"type":"VEC3"},{"bufferView":33,"componentType":5126,"count":32,"max":[0.3158726096153259,0.9847835302352905,0.14400461316108704],"min":[-0.2873478829860687,0.9476178288459778,-0.049179594963788986],"type":"VEC3"},{"bufferView":34,"componentType":5126,"count":32,"max":[0.38307061791419983,0.15888208150863647],"min":[0.25755438208580017,0.09375],"type":"VEC2"},{"bufferView":35,"componentType":5123,"count":48,"max":[31],"min":[0],"type":"SCALAR"},{"bufferView":36,"componentType":5126,"count":4,"max":[0.09375,0,0.03125],"min":[-0.09375,0,-0.03125],"type":"VEC3"},{"bufferView":37,"componentType":5126,"count":4,"max":[0,1,0],"min":[0,1,0],"type":"VEC3"},{"bufferView":38,"componentType":5126,"count":4,"max":[0.40625,0.078125],"min":[0.359375,0.0625],"type":"VEC2"},{"bufferView":39,"componentType":5123,"count":6,"max":[3],"min":[0],"type":"SCALAR"},{"bufferView":40,"componentType":5126,"count":128,"max":[0.08463247865438461,0.03941601887345314,0.08124999701976776],"min":[-0.0778675228357315,-0.05853258818387985,-0.08124999701976776],"type":"VEC3"},{"bufferView":41,"componentType":5126,"count":128,"max":[0.9509010314941406,1,0.938811182975769],"min":[-0.9258075952529907,-1,-0.938811182975769],"type":"VEC3"},{"bufferView":42,"componentType":5126,"count":128,"max":[0.46875,0.4804342985153198],"min":[0.0031250000465661287,0],"type":"VEC2"},{"bufferView":43,"componentType":5123,"count":192,"max":[127],"min":[0],"type":"SCALAR"},{"bufferView":44,"componentType":5126,"count":144,"max":[0.03437500074505806,0.34375,0.03437500074505806],"min":[-0.03437500074505806,0,-0.03437500074505806],"type":"VEC3"},{"bufferView":45,"componentType":5126,"count":144,"max":[1,0.25515425205230713,1],"min":[-0.9997418522834778,-1,-1],"type":"VEC3"},{"bufferView":46,"componentType":5126,"count":144,"max":[0.46875,0.46875],"min":[0.15625,0],"type":"VEC2"},{"bufferView":47,"componentType":5123,"count":192,"max":[143],"min":[0],"type":"SCALAR"}],"materials":[{"pbrMetallicRoughness":{"metallicFactor":0,"roughnessFactor":1,"baseColorTexture":{"index":0}},"alphaMode":"MASK","alphaCutoff":0.05,"doubleSided":true}],"textures":[{"sampler":0,"source":0,"name":"krokus"}],"samplers":[{"magFilter":9728,"minFilter":9728,"wrapS":33071,"wrapT":33071}],"images":[{"mimeType":"image/png","uri":"data:image/png;base64,"}],"meshes":[{"primitives":[{"mode":4,"attributes":{"POSITION":0,"NORMAL":1,"TEXCOORD_0":2},"indices":3,"material":0}]},{"primitives":[{"mode":4,"attributes":{"POSITION":4,"NORMAL":5,"TEXCOORD_0":6},"indices":7,"material":0}]},{"primitives":[{"mode":4,"attributes":{"POSITION":8,"NORMAL":9,"TEXCOORD_0":10},"indices":11,"material":0}]},{"primitives":[{"mode":4,"attributes":{"POSITION":12,"NORMAL":13,"TEXCOORD_0":14},"indices":15,"material":0}]},{"primitives":[{"mode":4,"attributes":{"POSITION":16,"NORMAL":17,"TEXCOORD_0":18},"indices":19,"material":0}]},{"primitives":[{"mode":4,"attributes":{"POSITION":20,"NORMAL":21,"TEXCOORD_0":22},"indices":23,"material":0}]},{"primitives":[{"mode":4,"attributes":{"POSITION":24,"NORMAL":25,"TEXCOORD_0":26},"indices":27,"material":0}]},{"primitives":[{"mode":4,"attributes":{"POSITION":28,"NORMAL":29,"TEXCOORD_0":30},"indices":31,"material":0}]},{"primitives":[{"mode":4,"attributes":{"POSITION":32,"NORMAL":33,"TEXCOORD_0":34},"indices":35,"material":0}]},{"primitives":[{"mode":4,"attributes":{"POSITION":36,"NORMAL":37,"TEXCOORD_0":38},"indices":39,"material":0}]},{"primitives":[{"mode":4,"attributes":{"POSITION":40,"NORMAL":41,"TEXCOORD_0":42},"indices":43,"material":0}]},{"primitives":[{"mode":4,"attributes":{"POSITION":44,"NORMAL":45,"TEXCOORD_0":46},"indices":47,"material":0}]}]}