{"asset":{"version":"2.0","generator":"Blockbench 4.11.2 glTF exporter"},"scenes":[{"nodes":[13],"name":"blockbench_export"}],"scene":0,"nodes":[{"rotation":[0,0,-0.19509032201612825,0.9807852804032304],"translation":[0.090625,0.59375,-2.8189256484623115e-18],"name":"tube","mesh":0},{"name":"cylinder","mesh":1},{"rotation":[0.30008546995139485,-0.6267387683933132,0.3058585733284742,0.6508438829998744],"translation":[0.1403335518137104,0.705364635418098,-0.00044925185517534277],"name":"plane","mesh":2},{"rotation":[0.5292051499210553,0.45469502676478246,-0.5539868969115318,0.454194737951398],"translation":[0.1403335518137104,0.705364635418098,0.00892574814482466],"name":"plane","mesh":3},{"rotation":[0.17200854269135085,0.7745387799785122,-0.5922283285989849,-0.14059995147740442],"translation":[0.1403335518137104,0.705364635418098,-0.00044925185517534277],"name":"plane","mesh":4},{"rotation":[0.5965509876949566,-0.130150654560223,-0.18004469509483362,0.7712143891071573],"translation":[0.1403335518137104,0.705364635418098,-0.00044925185517534277],"name":"plane","mesh":5},{"rotation":[0.3915498491310255,0.6307413066294656,-0.6537588338401926,0.14647015714041178],"translation":[0.1403335518137104,0.705364635418098,-0.00044925185517534277],"name":"plane","mesh":6},{"rotation":[0.5400125761026003,-0.40731827777804913,0.09410957377007795,0.7304940974188441],"translation":[0.1403335518137104,0.705364635418098,-0.00044925185517534277],"name":"plane","mesh":7},{"rotation":[0.08612867338339292,-0.7364420154641884,0.5207484133902338,0.423150209065073],"translation":[0.1403335518137104,0.705364635418098,-0.00044925185517534277],"name":"plane","mesh":8},{"rotation":[0.6390892076983848,0.140677802056213,-0.4226333387546766,0.6270213725106653],"translation":[0.1403335518137104,0.705364635418098,-0.00044925185517534277],"name":"plane","mesh":9},{"rotation":[0,0,-0.19722959758812594,0.9803573255885968],"translation":[0.09999999999999995,0.6093749999999998,0],"name":"cylinder","mesh":10},{"rotation":[0.35263215665141345,-0.5992038771147523,-0.44133644428357244,0.5672983506878498],"translation":[-0.008068184318279686,0.0004289244919804553,-0.14057634601674332],"name":"plane","mesh":11},{"rotation":[-0.3590878968890506,0.4029247044869073,-0.5860669808767294,0.6043451486923448],"translation":[0.0015625000000000504,-0.16562499999999997,-0.018749999999999996],"name":"plane","mesh":12},{"children":[0,1,2,3,4,5,6,7,8,9,10,11,12]}],"bufferViews":[{"buffer":0,"byteOffset":0,"byteLength":1536,"target":34962,"byteStride":12},{"buffer":0,"byteOffset":1536,"byteLength":1536,"target":34962,"byteStride":12},{"buffer":0,"byteOffset":3072,"byteLength":1024,"target":34962,"byteStride":8},{"buffer":0,"byteOffset":4096,"byteLength":384,"target":34963},{"buffer":0,"byteOffset":4480,"byteLength":2496,"target":34962,"byteStride":12},{"buffer":0,"byteOffset":6976,"byteLength":2496,"target":34962,"byteStride":12},{"buffer":0,"byteOffset":9472,"byteLength":1664,"target":34962,"byteStride":8},{"buffer":0,"byteOffset":11136,"byteLength":576,"target":34963},{"buffer":0,"byteOffset":11712,"byteLength":384,"target":34962,"byteStride":12},{"buffer":0,"byteOffset":12096,"byteLength":384,"target":34962,"byteStride":12},{"buffer":0,"byteOffset":12480,"byteLength":256,"target":34962,"byteStride":8},{"buffer":0,"byteOffset":12736,"byteLength":96,"target":34963},{"buffer":0,"byteOffset":12832,"byteLength":384,"target":34962,"byteStride":12},{"buffer":0,"byteOffset":13216,"byteLength":384,"target":34962,"byteStride":12},{"buffer":0,"byteOffset":13600,"byteLength":256,"target":34962,"byteStride":8},{"buffer":0,"byteOffset":13856,"byteLength":96,"target":34963},{"buffer":0,"byteOffset":13952,"byteLength":384,"target":34962,"byteStride":12},{"buffer":0,"byteOffset":14336,"byteLength":384,"target":34962,"byteStride":12},{"buffer":0,"byteOffset":14720,"byteLength":256,"target":34962,"byteStride":8},{"buffer":0,"byteOffset":14976,"byteLength":96,"target":34963},{"buffer":0,"byteOffset":15072,"byteLength":384,"target":34962,"byteStride":12},{"buffer":0,"byteOffset":15456,"byteLength":384,"target":34962,"byteStride":12},{"buffer":0,"byteOffset":15840,"byteLength":256,"target":34962,"byteStride":8},{"buffer":0,"byteOffset":16096,"byteLength":96,"target":34963},{"buffer":0,"byteOffset":16192,"byteLength":384,"target":34962,"byteStride":12},{"buffer":0,"byteOffset":16576,"byteLength":384,"target":34962,"byteStride":12},{"buffer":0,"byteOffset":16960,"byteLength":256,"target":34962,"byteStride":8},{"buffer":0,"byteOffset":17216,"byteLength":96,"target":34963},{"buffer":0,"byteOffset":17312,"byteLength":384,"target":34962,"byteStride":12},{"buffer":0,"byteOffset":17696,"byteLength":384,"target":34962,"byteStride":12},{"buffer":0,"byteOffset":18080,"byteLength":256,"target":34962,"byteStride":8},{"buffer":0,"byteOffset":18336,"byteLength":96,"target":34963},{"buffer":0,"byteOffset":18432,"byteLength":384,"target":34962,"byteStride":12},{"buffer":0,"byteOffset":18816,"byteLength":384,"target":34962,"byteStride":12},{"buffer":0,"byteOffset":19200,"byteLength":256,"target":34962,"byteStride":8},{"buffer":0,"byteOffset":19456,"byteLength":96,"target":34963},{"buffer":0,"byteOffset":19552,"byteLength":384,"target":34962,"byteStride":12},{"buffer":0,"byteOffset":19936,"byteLength":384,"target":34962,"byteStride":12},{"buffer":0,"byteOffset":20320,"byteLength":256,"target":34962,"byteStride":8},{"buffer":0,"byteOffset":20576,"byteLength":96,"target":34963},{"buffer":0,"byteOffset":20672,"byteLength":960,"target":34962,"byteStride":12},{"buffer":0,"byteOffset":21632,"byteLength":960,"target":34962,"byteStride":12},{"buffer":0,"byteOffset":22592,"byteLength":640,"target":34962,"byteStride":8},{"buffer":0,"byteOffset":23232,"byteLength":192,"target":34963},{"buffer":0,"byteOffset":23424,"byteLength":456,"target":34962,"byteStride":12},{"buffer":0,"byteOffset":23880,"byteLength":456,"target":34962,"byteStride":12},{"buffer":0,"byteOffset":24336,"byteLength":304,"target":34962,"byteStride":8},{"buffer":0,"byteOffset":24640,"byteLength":108,"target":34963},{"buffer":0,"byteOffset":24748,"byteLength":456,"target":34962,"byteStride":12},{"buffer":0,"byteOffset":25204,"byteLength":456,"target":34962,"byteStride":12},{"buffer":0,"byteOffset":25660,"byteLength":304,"target":34962,"byteStride":8},{"buffer":0,"byteOffset":25964,"byteLength":108,"target":34963}],"buffers":[{"byteLength":26072,"uri":"data:application/octet-stream;base64,"}],"accessors":[{"bufferView":0,"componentType":5126,"count":128,"max":[0.08463247865438461,0.03941601887345314,0.08124999701976776],"min":[-0.0778675228357315,-0.05853258818387985,-0.08124999701976776],"type":"VEC3"},{"bufferView":1,"componentType":5126,"count":128,"max":[0.9509010314941406,1,0.938811182975769],"min":[-0.9258075952529907,-1,-0.938811182975769],"type":"VEC3"},{"bufferView":2,"componentType":5126,"count":128,"max":[0.84375,0.84375],"min":[0.003998816013336182,0],"type":"VEC2"},{"bufferView":3,"componentType":5123,"count":192,"max":[127],"min":[0],"type":"SCALAR"},{"bufferView":4,"componentType":5126,"count":208,"max":[0.13512124121189117,0.6369588375091553,0.03125],"min":[-0.03125,0,-0.03125],"type":"VEC3"},{"bufferView":5,"componentType":5126,"count":208,"max":[1,0.9238795042037964,1],"min":[-1,-1,-1],"type":"VEC3"},{"bufferView":6,"componentType":5126,"count":208,"max":[0.53125,0.9709656238555908],"min":[0.014087500050663948,0],"type":"VEC2"},{"bufferView":7,"componentType":5123,"count":288,"max":[207],"min":[0],"type":"SCALAR"},{"bufferView":8,"componentType":5126,"count":32,"max":[0.12233037501573563,-0.0696539357304573,0.08984807878732681],"min":[-0.12766961753368378,-0.13993734121322632,-0.24539494514465332],"type":"VEC3"},{"bufferView":9,"componentType":5126,"count":32,"max":[0.28733378648757935,0.982846736907959,0.15540899336338043],"min":[-0.28394320607185364,0.7342410683631897,-0.6666581630706787],"type":"VEC3"},{"bufferView":10,"componentType":5126,"count":32,"max":[0.78125,0.8125],"min":[0.19206051528453827,0.125],"type":"VEC2"},{"bufferView":11,"componentType":5123,"count":48,"max":[31],"min":[0],"type":"SCALAR"},{"bufferView":12,"componentType":5126,"count":32,"max":[0.13430359959602356,-0.06746526807546616,0.08690065890550613],"min":[-0.11569639295339584,-0.13774867355823517,-0.248342365026474],"type":"VEC3"},{"bufferView":13,"componentType":5126,"count":32,"max":[0.28733378648757935,0.982846736907959,0.15540899336338043],"min":[-0.28394320607185364,0.7342410683631897,-0.6666581630706787],"type":"VEC3"},{"bufferView":14,"componentType":5126,"count":32,"max":[0.8517860174179077,0.6973006129264832],"min":[0.22331075370311737,0],"type":"VEC2"},{"bufferView":15,"componentType":5123,"count":48,"max":[31],"min":[0],"type":"SCALAR"},{"bufferView":16,"componentType":5126,"count":32,"max":[0.12805745005607605,-0.06762972474098206,0.08704536408185959],"min":[-0.12194255739450455,-0.13791312277317047,-0.24819765985012054],"type":"VEC3"},{"bufferView":17,"componentType":5126,"count":32,"max":[0.28733378648757935,0.982846736907959,0.15540899336338043],"min":[-0.28394320607185364,0.7342410683631897,-0.6666581630706787],"type":"VEC3"},{"bufferView":18,"componentType":5126,"count":32,"max":[0.8517860174179077,0.32229697704315186],"min":[0.37956035137176514,0],"type":"VEC2"},{"bufferView":19,"componentType":5123,"count":48,"max":[31],"min":[0],"type":"SCALAR"},{"bufferView":20,"componentType":5126,"count":32,"max":[0.12857653200626373,-0.06963996589183807,0.09006668627262115],"min":[-0.12142346054315567,-0.1399233639240265,-0.24517633020877838],"type":"VEC3"},{"bufferView":21,"componentType":5126,"count":32,"max":[0.28733378648757935,0.982846736907959,0.15540899336338043],"min":[-0.28394320607185364,0.7342410683631897,-0.6666581630706787],"type":"VEC3"},{"bufferView":22,"componentType":5126,"count":32,"max":[0.71875,0.84375],"min":[0,0.375],"type":"VEC2"},{"bufferView":23,"componentType":5123,"count":48,"max":[31],"min":[0],"type":"SCALAR"},{"bufferView":24,"componentType":5126,"count":32,"max":[0.100614033639431,-0.06397461146116257,0.08318684250116348],"min":[-0.10188596695661545,-0.12090416997671127,-0.18836000561714172],"type":"VEC3"},{"bufferView":25,"componentType":5126,"count":32,"max":[0.28733378648757935,0.982846736907959,0.15540899336338043],"min":[-0.28394320607185364,0.7342410683631897,-0.6666581630706787],"type":"VEC3"},{"bufferView":26,"componentType":5126,"count":32,"max":[0.8443203568458557,0.75],"min":[0.5320734977722168,0.34375],"type":"VEC2"},{"bufferView":27,"componentType":5123,"count":48,"max":[31],"min":[0],"type":"SCALAR"},{"bufferView":28,"componentType":5126,"count":32,"max":[0.10725949704647064,-0.05887303873896599,0.08842171728610992],"min":[-0.0952405035495758,-0.1158025935292244,-0.18312512338161469],"type":"VEC3"},{"bufferView":29,"componentType":5126,"count":32,"max":[0.28733378648757935,0.982846736907959,0.15540899336338043],"min":[-0.28394320607185364,0.7342410683631897,-0.6666581630706787],"type":"VEC3"},{"bufferView":30,"componentType":5126,"count":32,"max":[0.8443233966827393,0.6368732452392578],"min":[0.4716636836528778,0.1875],"type":"VEC2"},{"bufferView":31,"componentType":5123,"count":48,"max":[31],"min":[0],"type":"SCALAR"},{"bufferView":32,"componentType":5126,"count":32,"max":[0.10157386213541031,-0.06506247818470001,0.08597288280725479],"min":[-0.10092613846063614,-0.12199202924966812,-0.18557396531105042],"type":"VEC3"},{"bufferView":33,"componentType":5126,"count":32,"max":[0.28733378648757935,0.982846736907959,0.15540899336338043],"min":[-0.28394320607185364,0.7342410683631897,-0.6666581630706787],"type":"VEC3"},{"bufferView":34,"componentType":5126,"count":32,"max":[0.6845858693122864,0.84375],"min":[0.28125,0],"type":"VEC2"},{"bufferView":35,"componentType":5123,"count":48,"max":[31],"min":[0],"type":"SCALAR"},{"bufferView":36,"componentType":5126,"count":32,"max":[0.10629966855049133,-0.05786643177270889,0.08583185076713562],"min":[-0.09620033204555511,-0.114795982837677,-0.18571500480175018],"type":"VEC3"},{"bufferView":37,"componentType":5126,"count":32,"max":[0.28733378648757935,0.982846736907959,0.15540899336338043],"min":[-0.28394320607185364,0.7342410683631897,-0.6666581630706787],"type":"VEC3"},{"bufferView":38,"componentType":5126,"count":32,"max":[0.7505726218223572,0.84375],"min":[0.0029129362665116787,0],"type":"VEC2"},{"bufferView":39,"componentType":5123,"count":48,"max":[31],"min":[0],"type":"SCALAR"},{"bufferView":40,"componentType":5126,"count":80,"max":[0.078125,0.03515625,0.078125],"min":[-0.078125,0.02734375,-0.078125],"type":"VEC3"},{"bufferView":41,"componentType":5126,"count":80,"max":[1,1,1],"min":[-1,-1,-1],"type":"VEC3"},{"bufferView":42,"componentType":5126,"count":80,"max":[0.9569869041442871,0.05073690414428711],"min":[0.90625,0],"type":"VEC2"},{"bufferView":43,"componentType":5123,"count":96,"max":[79],"min":[0],"type":"SCALAR"},{"bufferView":44,"componentType":5126,"count":38,"max":[0.05166428163647652,0.1552208662033081,0.06223243847489357],"min":[-0.5913404822349548,-0.06329303979873657,-0.06276755779981613],"type":"VEC3"},{"bufferView":45,"componentType":5126,"count":38,"max":[0.293707013130188,0.9919134378433228,0.5923661589622498],"min":[-0.6622332334518433,0.6029360294342041,-0.4969181716442108],"type":"VEC3"},{"bufferView":46,"componentType":5126,"count":38,"max":[1,1],"min":[0.5696560144424438,0.8323372602462769],"type":"VEC2"},{"bufferView":47,"componentType":5123,"count":54,"max":[37],"min":[0],"type":"SCALAR"},{"bufferView":48,"componentType":5126,"count":38,"max":[-0.16277630627155304,-0.012072242796421051,0.0625],"min":[-0.8502762913703918,-0.04957224428653717,-0.0625],"type":"VEC3"},{"bufferView":49,"componentType":5126,"count":38,"max":[0.18389859795570374,0.9950371980667114,0.5057211518287659],"min":[0,0.8428685665130615,-0.5144957304000854],"type":"VEC3"},{"bufferView":50,"componentType":5126,"count":38,"max":[1,0.9814029335975647],"min":[0.671875,0.9087779521942139],"type":"VEC2"},{"bufferView":51,"componentType":5123,"count":54,"max":[37],"min":[0],"type":"SCALAR"}],"materials":[{"pbrMetallicRoughness":{"metallicFactor":0,"roughnessFactor":1,"baseColorTexture":{"index":0}},"alphaMode":"MASK","alphaCutoff":0.05,"doubleSided":true}],"textures":[{"sampler":0,"source":0,"name":"tulipan"}],"samplers":[{"magFilter":9728,"minFilter":9728,"wrapS":33071,"wrapT":33071}],"images":[{"mimeType":"image/png","uri":"data:image/png;base64,"}],"meshes":[{"primitives":[{"mode":4,"attributes":{"POSITION":0,"NORMAL":1,"TEXCOORD_0":2},"indices":3,"material":0}]},{"primitives":[{"mode":4,"attributes":{"POSITION":4,"NORMAL":5,"TEXCOORD_0":6},"indices":7,"material":0}]},{"primitives":[{"mode":4,"attributes":{"POSITION":8,"NORMAL":9,"TEXCOORD_0":10},"indices":11,"material":0}]},{"primitives":[{"mode":4,"attributes":{"POSITION":12,"NORMAL":13,"TEXCOORD_0":14},"indices":15,"material":0}]},{"primitives":[{"mode":4,"attributes":{"POSITION":16,"NORMAL":17,"TEXCOORD_0":18},"indices":19,"material":0}]},{"primitives":[{"mode":4,"attributes":{"POSITION":20,"NORMAL":21,"TEXCOORD_0":22},"indices":23,"material":0}]},{"primitives":[{"mode":4,"attributes":{"POSITION":24,"NORMAL":25,"TEXCOORD_0":26},"indices":27,"material":0}]},{"primitives":[{"mode":4,"attributes":{"POSITION":28,"NORMAL":29,"TEXCOORD_0":30},"indices":31,"material":0}]},{"primitives":[{"mode":4,"attributes":{"POSITION":32,"NORMAL":33,"TEXCOORD_0":34},"indices":35,"material":0}]},{"primitives":[{"mode":4,"attributes":{"POSITION":36,"NORMAL":37,"TEXCOORD_0":38},"indices":39,"material":0}]},{"primitives":[{"mode":4,"attributes":{"POSITION":40,"NORMAL":41,"TEXCOORD_0":42},"indices":43,"material":0}]},{"primitives":[{"mode":4,"attributes":{"POSITION":44,"NORMAL":45,"TEXCOORD_0":46},"indices":47,"material":0}]},{"primitives":[{"mode":4,"attributes":{"POSITION":48,"NORMAL":49,"TEXCOORD_0":50},"indices":51,"material":0}]}]}