{"asset":{"version":"2.0","generator":"Blockbench 4.11.2 glTF exporter"},"scenes":[{"nodes":[2],"name":"blockbench_export"}],"scene":0,"nodes":[{"translation":[0,0.125,0],"name":"cone","mesh":0},{"translation":[0.03125,0,0],"name":"cylinder","mesh":1},{"children":[0,1]}],"bufferViews":[{"buffer":0,"byteOffset":0,"byteLength":4896,"target":34962,"byteStride":12},{"buffer":0,"byteOffset":4896,"byteLength":4896,"target":34962,"byteStride":12},{"buffer":0,"byteOffset":9792,"byteLength":3264,"target":34962,"byteStride":8},{"buffer":0,"byteOffset":13056,"byteLength":1152,"target":34963},{"buffer":0,"byteOffset":14208,"byteLength":960,"target":34962,"byteStride":12},{"buffer":0,"byteOffset":15168,"byteLength":960,"target":34962,"byteStride":12},{"buffer":0,"byteOffset":16128,"byteLength":640,"target":34962,"byteStride":8},{"buffer":0,"byteOffset":16768,"byteLength":192,"target":34963}],"buffers":[{"byteLength":16960,"uri":"data:application/octet-stream;base64,"}],"accessors":[{"bufferView":0,"componentType":5126,"count":408,"max":[0.36875006556510925,2.4000000953674316,0.3862500488758087],"min":[-0.36125004291534424,0,-0.3750000596046448],"type":"VEC3"},{"bufferView":1,"componentType":5126,"count":408,"max":[0.9968987703323364,0.31726744771003723,0.9907728433609009],"min":[-0.9894988536834717,-1,-0.9974929690361023],"type":"VEC3"},{"bufferView":2,"componentType":5126,"count":408,"max":[0.655401349067688,0.8775532245635986],"min":[0,0],"type":"VEC2"},{"bufferView":3,"componentType":5123,"count":576,"max":[407],"min":[0],"type":"SCALAR"},{"bufferView":4,"componentType":5126,"count":80,"max":[0.125,0.1875,0.125],"min":[-0.125,0,-0.125],"type":"VEC3"},{"bufferView":5,"componentType":5126,"count":80,"max":[1,1,1],"min":[-1,-1,-1],"type":"VEC3"},{"bufferView":6,"componentType":5126,"count":80,"max":[0.65625,0.6875],"min":[0,0],"type":"VEC2"},{"bufferView":7,"componentType":5123,"count":96,"max":[79],"min":[0],"type":"SCALAR"}],"materials":[{"pbrMetallicRoughness":{"metallicFactor":0,"roughnessFactor":1,"baseColorTexture":{"index":0}},"alphaMode":"MASK","alphaCutoff":0.05,"doubleSided":true}],"textures":[{"sampler":0,"source":0,"name":"tuja.png"}],"samplers":[{"magFilter":9728,"minFilter":9728,"wrapS":33071,"wrapT":33071}],"images":[{"mimeType":"image/png","uri":"data:image/png;base64,"}],"meshes":[{"primitives":[{"mode":4,"attributes":{"POSITION":0,"NORMAL":1,"TEXCOORD_0":2},"indices":3,"material":0}]},{"primitives":[{"mode":4,"attributes":{"POSITION":4,"NORMAL":5,"TEXCOORD_0":6},"indices":7,"material":0}]}]}