{"asset":{"version":"2.0","generator":"Blockbench 4.11.2 glTF exporter"},"scenes":[{"nodes":[1],"name":"blockbench_export"}],"scene":0,"nodes":[{"translation":[0,0.5249999999999999,0],"name":"sphere","mesh":0},{"children":[0]}],"bufferViews":[{"buffer":0,"byteOffset":0,"byteLength":2976,"target":34962,"byteStride":12},{"buffer":0,"byteOffset":2976,"byteLength":2976,"target":34962,"byteStride":12},{"buffer":0,"byteOffset":5952,"byteLength":1984,"target":34962,"byteStride":8},{"buffer":0,"byteOffset":7936,"byteLength":708,"target":34963}],"buffers":[{"byteLength":8644,"uri":"data:application/octet-stream;base64,"}],"accessors":[{"bufferView":0,"componentType":5126,"count":248,"max":[0.7250000238418579,0.7250000238418579,0.75],"min":[-0.7250000238418579,-0.5245190262794495,-0.737500011920929],"type":"VEC3"},{"bufferView":1,"componentType":5126,"count":248,"max":[0.965476393699646,0.9831096529960632,0.9715198874473572],"min":[-0.9658007025718689,-1,-0.9636641144752502],"type":"VEC3"},{"bufferView":2,"componentType":5126,"count":248,"max":[0.9792442917823792,0.921875],"min":[0.0015625000232830644,0],"type":"VEC2"},{"bufferView":3,"componentType":5123,"count":354,"max":[247],"min":[0],"type":"SCALAR"}],"materials":[{"pbrMetallicRoughness":{"metallicFactor":0,"roughnessFactor":1,"baseColorTexture":{"index":0}},"alphaMode":"MASK","alphaCutoff":0.05,"doubleSided":true}],"textures":[{"sampler":0,"source":0,"name":"bukszpan"}],"samplers":[{"magFilter":9728,"minFilter":9728,"wrapS":33071,"wrapT":33071}],"images":[{"mimeType":"image/png","uri":"data:image/png;base64,"}],"meshes":[{"primitives":[{"mode":4,"attributes":{"POSITION":0,"NORMAL":1,"TEXCOORD_0":2},"indices":3,"material":0}]}]}