{"asset":{"version":"2.0","generator":"Blockbench 4.11.2 glTF exporter"},"scenes":[{"nodes":[18],"name":"blockbench_export"}],"scene":0,"nodes":[{"translation":[0,0.625,0],"name":"sphere","mesh":0},{"name":"cone","mesh":1},{"translation":[0.14999999999999958,-0.006249999999999867,-0.07812499999999978],"name":"sphere","mesh":2},{"rotation":[-0.13052619222005157,0,0,0.9914448613738104],"translation":[0.33124999999999966,-0.41874999999999984,-0.0249999999999998],"name":"sphere","mesh":3},{"rotation":[0.21456691314384554,-0.7221052761045524,0.2557108895910293,0.6059182708504951],"name":"jazebina3"},{"translation":[-4.440892098500626e-16,-0.006249999999999645,0.023958333333333248],"name":"sphere","mesh":4},{"translation":[-0.06250000000000044,-0.012500000000000178,0.017708333333333437],"name":"sphere","mesh":5},{"translation":[-0.012500000000000622,-1.1562500000000009,-0.7885416666666666],"name":"sphere","mesh":6},{"translation":[-0.46874999999999956,-1.018750000000001,-0.08229166666666721],"name":"sphere","mesh":7},{"rotation":[-0.6887310791052401,0.6012614856674592,0.168040561843481,0.36864141940755735],"translation":[0,0.75,-0.7187499999999998],"name":"jazebina4","children":[6,7,8]},{"translation":[-0.4312500000000008,1,-0.0010416666666667185],"name":"sphere","mesh":8},{"rotation":[0.35741706335693674,-0.49815054193741104,0.5213120387002271,0.5935763124443058],"translation":[1.0250000000000004,0.5625000000000001,0],"name":"jazebina3","children":[5,9,10]},{"translation":[0.39374999999999993,-0.1499999999999998,0.04895833333333327],"name":"sphere","mesh":9},{"translation":[-0.29374999999999984,0.8437499999999997,-0.0010416666666667185],"name":"sphere","mesh":10},{"translation":[-0.29374999999999984,0.2687499999999977,0.5739583333333335],"name":"sphere","mesh":11},{"rotation":[0.21456691314384554,-0.7221052761045524,0.2557108895910293,0.6059182708504951],"translation":[1.1562499999999996,0.35624999999999996,0.0010416666666667185],"name":"jazebina2","children":[4,11,12,13,14]},{"translation":[0.41874999999999984,-0.16562500000000002,0.48125000000000007],"name":"sphere","mesh":12},{"translation":[-0.49999999999999956,0.4937499999999996,-0.2625000000000002],"name":"jazebina","children":[2,3,15,16]},{"children":[0,1,17]}],"bufferViews":[{"buffer":0,"byteOffset":0,"byteLength":3888,"target":34962,"byteStride":12},{"buffer":0,"byteOffset":3888,"byteLength":3888,"target":34962,"byteStride":12},{"buffer":0,"byteOffset":7776,"byteLength":2592,"target":34962,"byteStride":8},{"buffer":0,"byteOffset":10368,"byteLength":936,"target":34963},{"buffer":0,"byteOffset":11304,"byteLength":1728,"target":34962,"byteStride":12},{"buffer":0,"byteOffset":13032,"byteLength":1728,"target":34962,"byteStride":12},{"buffer":0,"byteOffset":14760,"byteLength":1152,"target":34962,"byteStride":8},{"buffer":0,"byteOffset":15912,"byteLength":384,"target":34963},{"buffer":0,"byteOffset":16296,"byteLength":3168,"target":34962,"byteStride":12},{"buffer":0,"byteOffset":19464,"byteLength":3168,"target":34962,"byteStride":12},{"buffer":0,"byteOffset":22632,"byteLength":2112,"target":34962,"byteStride":8},{"buffer":0,"byteOffset":24744,"byteLength":720,"target":34963},{"buffer":0,"byteOffset":25464,"byteLength":3168,"target":34962,"byteStride":12},{"buffer":0,"byteOffset":28632,"byteLength":3168,"target":34962,"byteStride":12},{"buffer":0,"byteOffset":31800,"byteLength":2112,"target":34962,"byteStride":8},{"buffer":0,"byteOffset":33912,"byteLength":720,"target":34963},{"buffer":0,"byteOffset":34632,"byteLength":3168,"target":34962,"byteStride":12},{"buffer":0,"byteOffset":37800,"byteLength":3168,"target":34962,"byteStride":12},{"buffer":0,"byteOffset":40968,"byteLength":2112,"target":34962,"byteStride":8},{"buffer":0,"byteOffset":43080,"byteLength":720,"target":34963},{"buffer":0,"byteOffset":43800,"byteLength":3168,"target":34962,"byteStride":12},{"buffer":0,"byteOffset":46968,"byteLength":3168,"target":34962,"byteStride":12},{"buffer":0,"byteOffset":50136,"byteLength":2112,"target":34962,"byteStride":8},{"buffer":0,"byteOffset":52248,"byteLength":720,"target":34963},{"buffer":0,"byteOffset":52968,"byteLength":3168,"target":34962,"byteStride":12},{"buffer":0,"byteOffset":56136,"byteLength":3168,"target":34962,"byteStride":12},{"buffer":0,"byteOffset":59304,"byteLength":2112,"target":34962,"byteStride":8},{"buffer":0,"byteOffset":61416,"byteLength":720,"target":34963},{"buffer":0,"byteOffset":62136,"byteLength":3168,"target":34962,"byteStride":12},{"buffer":0,"byteOffset":65304,"byteLength":3168,"target":34962,"byteStride":12},{"buffer":0,"byteOffset":68472,"byteLength":2112,"target":34962,"byteStride":8},{"buffer":0,"byteOffset":70584,"byteLength":720,"target":34963},{"buffer":0,"byteOffset":71304,"byteLength":3168,"target":34962,"byteStride":12},{"buffer":0,"byteOffset":74472,"byteLength":3168,"target":34962,"byteStride":12},{"buffer":0,"byteOffset":77640,"byteLength":2112,"target":34962,"byteStride":8},{"buffer":0,"byteOffset":79752,"byteLength":720,"target":34963},{"buffer":0,"byteOffset":80472,"byteLength":3168,"target":34962,"byteStride":12},{"buffer":0,"byteOffset":83640,"byteLength":3168,"target":34962,"byteStride":12},{"buffer":0,"byteOffset":86808,"byteLength":2112,"target":34962,"byteStride":8},{"buffer":0,"byteOffset":88920,"byteLength":720,"target":34963},{"buffer":0,"byteOffset":89640,"byteLength":3168,"target":34962,"byteStride":12},{"buffer":0,"byteOffset":92808,"byteLength":3168,"target":34962,"byteStride":12},{"buffer":0,"byteOffset":95976,"byteLength":2112,"target":34962,"byteStride":8},{"buffer":0,"byteOffset":98088,"byteLength":720,"target":34963},{"buffer":0,"byteOffset":98808,"byteLength":3168,"target":34962,"byteStride":12},{"buffer":0,"byteOffset":101976,"byteLength":3168,"target":34962,"byteStride":12},{"buffer":0,"byteOffset":105144,"byteLength":2112,"target":34962,"byteStride":8},{"buffer":0,"byteOffset":107256,"byteLength":720,"target":34963},{"buffer":0,"byteOffset":107976,"byteLength":3168,"target":34962,"byteStride":12},{"buffer":0,"byteOffset":111144,"byteLength":3168,"target":34962,"byteStride":12},{"buffer":0,"byteOffset":114312,"byteLength":2112,"target":34962,"byteStride":8},{"buffer":0,"byteOffset":116424,"byteLength":720,"target":34963}],"buffers":[{"byteLength":117144,"uri":"data:application/octet-stream;base64,"}],"accessors":[{"bufferView":0,"componentType":5126,"count":324,"max":[0.763755202293396,1.4874999523162842,0.701255202293396],"min":[-0.682505190372467,-0.36250001192092896,-0.699999988079071],"type":"VEC3"},{"bufferView":1,"componentType":5126,"count":324,"max":[0.9864820241928101,0.9676281809806824,0.987132728099823],"min":[-0.9957767128944397,-0.9131133556365967,-0.9979297518730164],"type":"VEC3"},{"bufferView":2,"componentType":5126,"count":324,"max":[0.4921875,0.46875],"min":[0,0],"type":"VEC2"},{"bufferView":3,"componentType":5123,"count":468,"max":[323],"min":[0],"type":"SCALAR"},{"bufferView":4,"componentType":5126,"count":144,"max":[0.09375,1.9988503456115723,0.09375],"min":[-0.09375,0,-0.09375],"type":"VEC3"},{"bufferView":5,"componentType":5126,"count":144,"max":[0.9989093542098999,0.14365215599536896,0.9997657537460327],"min":[-0.9989072680473328,-1,-0.9990737438201904],"type":"VEC3"},{"bufferView":6,"componentType":5126,"count":144,"max":[0.42672890424728394,0.6796875],"min":[0.15847767889499664,0.109375],"type":"VEC2"},{"bufferView":7,"componentType":5123,"count":192,"max":[143],"min":[0],"type":"SCALAR"},{"bufferView":8,"componentType":5126,"count":264,"max":[0.09375,0.09375,0.09375],"min":[-0.09375,-0.09375,-0.09375],"type":"VEC3"},{"bufferView":9,"componentType":5126,"count":264,"max":[0.9659258127212524,0.9659258127212524,0.9659258127212524],"min":[-0.9659258127212524,-0.9659258127212524,-0.9659258127212524],"type":"VEC3"},{"bufferView":10,"componentType":5126,"count":264,"max":[0.49024856090545654,0.5249779224395752],"min":[0.0011867186985909939,0],"type":"VEC2"},{"bufferView":11,"componentType":5123,"count":360,"max":[263],"min":[0],"type":"SCALAR"},{"bufferView":12,"componentType":5126,"count":264,"max":[0.078125,0.078125,0.078125],"min":[-0.078125,-0.078125,-0.078125],"type":"VEC3"},{"bufferView":13,"componentType":5126,"count":264,"max":[0.9659258127212524,0.9659258127212524,0.9659258127212524],"min":[-0.9659258127212524,-0.9659258127212524,-0.9659258127212524],"type":"VEC3"},{"bufferView":14,"componentType":5126,"count":264,"max":[0.535625696182251,0.5234375],"min":[0.19888652861118317,0.03125],"type":"VEC2"},{"bufferView":15,"componentType":5123,"count":360,"max":[263],"min":[0],"type":"SCALAR"},{"bufferView":16,"componentType":5126,"count":264,"max":[0.09375,0.09375,0.09375],"min":[-0.09375,-0.09375,-0.09375],"type":"VEC3"},{"bufferView":17,"componentType":5126,"count":264,"max":[0.9659258127212524,0.9659258127212524,0.9659258127212524],"min":[-0.9659258127212524,-0.9659258127212524,-0.9659258127212524],"type":"VEC3"},{"bufferView":18,"componentType":5126,"count":264,"max":[0.5449296236038208,0.5078125],"min":[0.0019389241933822632,0],"type":"VEC2"},{"bufferView":19,"componentType":5123,"count":360,"max":[263],"min":[0],"type":"SCALAR"},{"bufferView":20,"componentType":5126,"count":264,"max":[0.078125,0.078125,0.078125],"min":[-0.078125,-0.078125,-0.078125],"type":"VEC3"},{"bufferView":21,"componentType":5126,"count":264,"max":[0.9659258127212524,0.9659258127212524,0.9659258127212524],"min":[-0.9659258127212524,-0.9659258127212524,-0.9659258127212524],"type":"VEC3"},{"bufferView":22,"componentType":5126,"count":264,"max":[0.535625696182251,0.53125],"min":[0.0019410345703363419,0.02987349033355713],"type":"VEC2"},{"bufferView":23,"componentType":5123,"count":360,"max":[263],"min":[0],"type":"SCALAR"},{"bufferView":24,"componentType":5126,"count":264,"max":[0.09375,0.09375,0.09375],"min":[-0.09375,-0.09375,-0.09375],"type":"VEC3"},{"bufferView":25,"componentType":5126,"count":264,"max":[0.9659258127212524,0.9659258127212524,0.9659258127212524],"min":[-0.9659258127212524,-0.9659258127212524,-0.9659258127212524],"type":"VEC3"},{"bufferView":26,"componentType":5126,"count":264,"max":[0.5449296236038208,0.5078125],"min":[0.06443892419338226,0.0625],"type":"VEC2"},{"bufferView":27,"componentType":5123,"count":360,"max":[263],"min":[0],"type":"SCALAR"},{"bufferView":28,"componentType":5126,"count":264,"max":[0.078125,0.078125,0.078125],"min":[-0.078125,-0.078125,-0.078125],"type":"VEC3"},{"bufferView":29,"componentType":5126,"count":264,"max":[0.9659258127212524,0.9659258127212524,0.9659258127212524],"min":[-0.9659258127212524,-0.9659258127212524,-0.9659258127212524],"type":"VEC3"},{"bufferView":30,"componentType":5126,"count":264,"max":[0.535625696182251,0.53125],"min":[0.03319103643298149,0.09376811981201172],"type":"VEC2"},{"bufferView":31,"componentType":5123,"count":360,"max":[263],"min":[0],"type":"SCALAR"},{"bufferView":32,"componentType":5126,"count":264,"max":[0.09375,0.09375,0.09375],"min":[-0.09375,-0.09375,-0.09375],"type":"VEC3"},{"bufferView":33,"componentType":5126,"count":264,"max":[0.9659258127212524,0.9659258127212524,0.9659258127212524],"min":[-0.9659258127212524,-0.9659258127212524,-0.9659258127212524],"type":"VEC3"},{"bufferView":34,"componentType":5126,"count":264,"max":[0.5449296236038208,0.5],"min":[0.0019389241933822632,0.0787230134010315],"type":"VEC2"},{"bufferView":35,"componentType":5123,"count":360,"max":[263],"min":[0],"type":"SCALAR"},{"bufferView":36,"componentType":5126,"count":264,"max":[0.09375,0.09375,0.09375],"min":[-0.09375,-0.09375,-0.09375],"type":"VEC3"},{"bufferView":37,"componentType":5126,"count":264,"max":[0.9659258127212524,0.9659258127212524,0.9659258127212524],"min":[-0.9659258127212524,-0.9659258127212524,-0.9659258127212524],"type":"VEC3"},{"bufferView":38,"componentType":5126,"count":264,"max":[0.5449296236038208,0.5],"min":[0.10543835163116455,0.0007053613662719727],"type":"VEC2"},{"bufferView":39,"componentType":5123,"count":360,"max":[263],"min":[0],"type":"SCALAR"},{"bufferView":40,"componentType":5126,"count":264,"max":[0.09375,0.09375,0.09375],"min":[-0.09375,-0.09375,-0.09375],"type":"VEC3"},{"bufferView":41,"componentType":5126,"count":264,"max":[0.9659258127212524,0.9659258127212524,0.9659258127212524],"min":[-0.9659258127212524,-0.9659258127212524,-0.9659258127212524],"type":"VEC3"},{"bufferView":42,"componentType":5126,"count":264,"max":[0.5449296236038208,0.465714693069458],"min":[0.11325085163116455,0],"type":"VEC2"},{"bufferView":43,"componentType":5123,"count":360,"max":[263],"min":[0],"type":"SCALAR"},{"bufferView":44,"componentType":5126,"count":264,"max":[0.078125,0.078125,0.078125],"min":[-0.078125,-0.078125,-0.078125],"type":"VEC3"},{"bufferView":45,"componentType":5126,"count":264,"max":[0.9659258127212524,0.9659258127212524,0.9659258127212524],"min":[-0.9659258127212524,-0.9659258127212524,-0.9659258127212524],"type":"VEC3"},{"bufferView":46,"componentType":5126,"count":264,"max":[0.535625696182251,0.5234375],"min":[0.19888652861118317,0.13283061981201172],"type":"VEC2"},{"bufferView":47,"componentType":5123,"count":360,"max":[263],"min":[0],"type":"SCALAR"},{"bufferView":48,"componentType":5126,"count":264,"max":[0.09375,0.09375,0.09375],"min":[-0.09375,-0.09375,-0.09375],"type":"VEC3"},{"bufferView":49,"componentType":5126,"count":264,"max":[0.9659258127212524,0.9659258127212524,0.9659258127212524],"min":[-0.9659258127212524,-0.9659258127212524,-0.9659258127212524],"type":"VEC3"},{"bufferView":50,"componentType":5126,"count":264,"max":[0.5371171236038208,0.4765625],"min":[0.0011867186985909939,0],"type":"VEC2"},{"bufferView":51,"componentType":5123,"count":360,"max":[263],"min":[0],"type":"SCALAR"}],"materials":[{"pbrMetallicRoughness":{"metallicFactor":0,"roughnessFactor":1,"baseColorTexture":{"index":0}},"alphaMode":"MASK","alphaCutoff":0.05,"doubleSided":true}],"textures":[{"sampler":0,"source":0,"name":"ostrokrzew"}],"samplers":[{"magFilter":9728,"minFilter":9728,"wrapS":33071,"wrapT":33071}],"images":[{"mimeType":"image/png","uri":"data:image/png;base64,"}],"meshes":[{"primitives":[{"mode":4,"attributes":{"POSITION":0,"NORMAL":1,"TEXCOORD_0":2},"indices":3,"material":0}]},{"primitives":[{"mode":4,"attributes":{"POSITION":4,"NORMAL":5,"TEXCOORD_0":6},"indices":7,"material":0}]},{"primitives":[{"mode":4,"attributes":{"POSITION":8,"NORMAL":9,"TEXCOORD_0":10},"indices":11,"material":0}]},{"primitives":[{"mode":4,"attributes":{"POSITION":12,"NORMAL":13,"TEXCOORD_0":14},"indices":15,"material":0}]},{"primitives":[{"mode":4,"attributes":{"POSITION":16,"NORMAL":17,"TEXCOORD_0":18},"indices":19,"material":0}]},{"primitives":[{"mode":4,"attributes":{"POSITION":20,"NORMAL":21,"TEXCOORD_0":22},"indices":23,"material":0}]},{"primitives":[{"mode":4,"attributes":{"POSITION":24,"NORMAL":25,"TEXCOORD_0":26},"indices":27,"material":0}]},{"primitives":[{"mode":4,"attributes":{"POSITION":28,"NORMAL":29,"TEXCOORD_0":30},"indices":31,"material":0}]},{"primitives":[{"mode":4,"attributes":{"POSITION":32,"NORMAL":33,"TEXCOORD_0":34},"indices":35,"material":0}]},{"primitives":[{"mode":4,"attributes":{"POSITION":36,"NORMAL":37,"TEXCOORD_0":38},"indices":39,"material":0}]},{"primitives":[{"mode":4,"attributes":{"POSITION":40,"NORMAL":41,"TEXCOORD_0":42},"indices":43,"material":0}]},{"primitives":[{"mode":4,"attributes":{"POSITION":44,"NORMAL":45,"TEXCOORD_0":46},"indices":47,"material":0}]},{"primitives":[{"mode":4,"attributes":{"POSITION":48,"NORMAL":49,"TEXCOORD_0":50},"indices":51,"material":0}]}]}