{"asset":{"version":"2.0","generator":"Blockbench 4.11.1 glTF exporter"},"scenes":[{"nodes":[4],"name":"blockbench_export"}],"scene":0,"nodes":[{"translation":[0,4.8125,-3.8125],"name":"cuboid","mesh":0},{"name":"cylinder","mesh":1},{"rotation":[-0.2798290140309921,0,0,0.9600498543859287],"translation":[-6.1679056923619835e-18,6.65625,-1.0625],"name":"cylinder","mesh":2},{"rotation":[-0.1763997635929724,0.6428282691036613,0.20851945377155828,0.7156637319609993],"translation":[-0.8125,6.65625,0.1875],"name":"cylinder","mesh":3},{"children":[0,1,2,3]}],"bufferViews":[{"buffer":0,"byteOffset":0,"byteLength":1056,"target":34962,"byteStride":12},{"buffer":0,"byteOffset":1056,"byteLength":1056,"target":34962,"byteStride":12},{"buffer":0,"byteOffset":2112,"byteLength":704,"target":34962,"byteStride":8},{"buffer":0,"byteOffset":2816,"byteLength":264,"target":34963},{"buffer":0,"byteOffset":3080,"byteLength":5472,"target":34962,"byteStride":12},{"buffer":0,"byteOffset":8552,"byteLength":5472,"target":34962,"byteStride":12},{"buffer":0,"byteOffset":14024,"byteLength":3648,"target":34962,"byteStride":8},{"buffer":0,"byteOffset":17672,"byteLength":1296,"target":34963},{"buffer":0,"byteOffset":18968,"byteLength":2496,"target":34962,"byteStride":12},{"buffer":0,"byteOffset":21464,"byteLength":2496,"target":34962,"byteStride":12},{"buffer":0,"byteOffset":23960,"byteLength":1664,"target":34962,"byteStride":8},{"buffer":0,"byteOffset":25624,"byteLength":576,"target":34963},{"buffer":0,"byteOffset":26200,"byteLength":2496,"target":34962,"byteStride":12},{"buffer":0,"byteOffset":28696,"byteLength":2496,"target":34962,"byteStride":12},{"buffer":0,"byteOffset":31192,"byteLength":1664,"target":34962,"byteStride":8},{"buffer":0,"byteOffset":32856,"byteLength":576,"target":34963}],"buffers":[{"byteLength":33432,"uri":"data:application/octet-stream;base64,"}],"accessors":[{"bufferView":0,"componentType":5126,"count":88,"max":[0.15000000596046448,1.59375,0.14374999701976776],"min":[-0.15625,-0.0625,-0.30000001192092896],"type":"VEC3"},{"bufferView":1,"componentType":5126,"count":88,"max":[0.9917828440666199,0.9701424837112427,0.9931325912475586],"min":[-0.9962431192398071,-1,-0.9847753643989563],"type":"VEC3"},{"bufferView":2,"componentType":5126,"count":88,"max":[0.25,0.25],"min":[0,0],"type":"VEC2"},{"bufferView":3,"componentType":5123,"count":132,"max":[87],"min":[0],"type":"SCALAR"},{"bufferView":4,"componentType":5126,"count":456,"max":[4.981249809265137,6.6875,4.5],"min":[-4.46875,-0.0625,-3.9713134765625],"type":"VEC3"},{"bufferView":5,"componentType":5126,"count":456,"max":[0.9955301284790039,1,0.9921907782554626],"min":[-0.995137095451355,0.05722420662641525,-0.9941920042037964],"type":"VEC3"},{"bufferView":6,"componentType":5126,"count":456,"max":[0.703125,0.703125],"min":[0,0],"type":"VEC2"},{"bufferView":7,"componentType":5123,"count":648,"max":[455],"min":[0],"type":"SCALAR"},{"bufferView":8,"componentType":5126,"count":208,"max":[0.9885379076004028,7.16432523727417,0.8976927995681763],"min":[-0.96875,-0.7274500131607056,-3.815927028656006],"type":"VEC3"},{"bufferView":9,"componentType":5126,"count":208,"max":[1,1,0.9936648011207581],"min":[-1,-0.9810220003128052,-0.9986477494239807],"type":"VEC3"},{"bufferView":10,"componentType":5126,"count":208,"max":[0.20294876396656036,0.20294874906539917],"min":[0,0],"type":"VEC2"},{"bufferView":11,"componentType":5123,"count":288,"max":[207],"min":[0],"type":"SCALAR"},{"bufferView":12,"componentType":5126,"count":208,"max":[0.7510378956794739,7.00807523727417,0.4726927876472473],"min":[-0.731249988079071,-0.5712000131607056,-3.3909270763397217],"type":"VEC3"},{"bufferView":13,"componentType":5126,"count":208,"max":[1,1,0.9953734874725342],"min":[-1,-0.9739407896995544,-0.9989323616027832],"type":"VEC3"},{"bufferView":14,"componentType":5126,"count":208,"max":[0.20294876396656036,0.20294874906539917],"min":[0,0],"type":"VEC2"},{"bufferView":15,"componentType":5123,"count":288,"max":[207],"min":[0],"type":"SCALAR"}],"materials":[{"pbrMetallicRoughness":{"metallicFactor":0,"roughnessFactor":1},"alphaMode":"MASK","alphaCutoff":0.05,"doubleSided":true}],"meshes":[{"primitives":[{"mode":4,"attributes":{"POSITION":0,"NORMAL":1,"TEXCOORD_0":2},"indices":3,"material":0}]},{"primitives":[{"mode":4,"attributes":{"POSITION":4,"NORMAL":5,"TEXCOORD_0":6},"indices":7,"material":0}]},{"primitives":[{"mode":4,"attributes":{"POSITION":8,"NORMAL":9,"TEXCOORD_0":10},"indices":11,"material":0}]},{"primitives":[{"mode":4,"attributes":{"POSITION":12,"NORMAL":13,"TEXCOORD_0":14},"indices":15,"material":0}]}]}