{"asset":{"version":"2.0","generator":"Blockbench 4.11.2 glTF exporter"},"scenes":[{"nodes":[9],"name":"blockbench_export"}],"scene":0,"nodes":[{"rotation":[0.4182463115058514,-0.5319558548385543,-0.4545194776720757,0.579227965339586],"translation":[0.0031250000000000167,0,0],"name":"plane","mesh":0},{"translation":[0.078125,0,0],"name":"cylinder","mesh":1},{"rotation":[0,0,-0.7283709698824008,0.6851829903263587],"translation":[0.33906249999999993,1.181249999999999,0],"name":"plane","mesh":2},{"rotation":[0.19879807320008033,-0.22614052136588494,0.678311407507299,0.6702487785395571],"translation":[0.33906249999999993,1.1812499999999997,0],"name":"plane","mesh":3},{"rotation":[-0.21846809371913584,0.2071550204764928,0.6843243890719714,0.6641224435594567],"translation":[0.33906249999999993,1.1812499999999997,0],"name":"plane","mesh":4},{"rotation":[0.4944000427623341,-0.5858737466156556,0.47111118282160874,0.4363196123984818],"translation":[0.33906249999999993,1.1812499999999997,0],"name":"plane","mesh":5},{"rotation":[-0.5297139829172208,0.6196547666420266,0.4166147802023276,0.4023222482000665],"translation":[0.33906249999999993,1.1812499999999997,0],"name":"plane","mesh":6},{"rotation":[-0.325602623947794,0.428522606496388,-0.5080293557106087,0.6725009150448176],"translation":[0.0031250000000000167,0,0],"name":"plane","mesh":7},{"rotation":[0,0,0.6946583704589973,0.7193398003386512],"translation":[0.32974961834238753,1.1612447705982067,0.0013597785870783732],"name":"sphere","mesh":8},{"children":[0,1,2,3,4,5,6,7,8]}],"bufferViews":[{"buffer":0,"byteOffset":0,"byteLength":456,"target":34962,"byteStride":12},{"buffer":0,"byteOffset":456,"byteLength":456,"target":34962,"byteStride":12},{"buffer":0,"byteOffset":912,"byteLength":304,"target":34962,"byteStride":8},{"buffer":0,"byteOffset":1216,"byteLength":108,"target":34963},{"buffer":0,"byteOffset":1324,"byteLength":3120,"target":34962,"byteStride":12},{"buffer":0,"byteOffset":4444,"byteLength":3120,"target":34962,"byteStride":12},{"buffer":0,"byteOffset":7564,"byteLength":2080,"target":34962,"byteStride":8},{"buffer":0,"byteOffset":9644,"byteLength":756,"target":34963},{"buffer":0,"byteOffset":10400,"byteLength":720,"target":34962,"byteStride":12},{"buffer":0,"byteOffset":11120,"byteLength":720,"target":34962,"byteStride":12},{"buffer":0,"byteOffset":11840,"byteLength":480,"target":34962,"byteStride":8},{"buffer":0,"byteOffset":12320,"byteLength":168,"target":34963},{"buffer":0,"byteOffset":12488,"byteLength":720,"target":34962,"byteStride":12},{"buffer":0,"byteOffset":13208,"byteLength":720,"target":34962,"byteStride":12},{"buffer":0,"byteOffset":13928,"byteLength":480,"target":34962,"byteStride":8},{"buffer":0,"byteOffset":14408,"byteLength":168,"target":34963},{"buffer":0,"byteOffset":14576,"byteLength":720,"target":34962,"byteStride":12},{"buffer":0,"byteOffset":15296,"byteLength":720,"target":34962,"byteStride":12},{"buffer":0,"byteOffset":16016,"byteLength":480,"target":34962,"byteStride":8},{"buffer":0,"byteOffset":16496,"byteLength":168,"target":34963},{"buffer":0,"byteOffset":16664,"byteLength":720,"target":34962,"byteStride":12},{"buffer":0,"byteOffset":17384,"byteLength":720,"target":34962,"byteStride":12},{"buffer":0,"byteOffset":18104,"byteLength":480,"target":34962,"byteStride":8},{"buffer":0,"byteOffset":18584,"byteLength":168,"target":34963},{"buffer":0,"byteOffset":18752,"byteLength":720,"target":34962,"byteStride":12},{"buffer":0,"byteOffset":19472,"byteLength":720,"target":34962,"byteStride":12},{"buffer":0,"byteOffset":20192,"byteLength":480,"target":34962,"byteStride":8},{"buffer":0,"byteOffset":20672,"byteLength":168,"target":34963},{"buffer":0,"byteOffset":20840,"byteLength":456,"target":34962,"byteStride":12},{"buffer":0,"byteOffset":21296,"byteLength":456,"target":34962,"byteStride":12},{"buffer":0,"byteOffset":21752,"byteLength":304,"target":34962,"byteStride":8},{"buffer":0,"byteOffset":22056,"byteLength":108,"target":34963},{"buffer":0,"byteOffset":22164,"byteLength":840,"target":34962,"byteStride":12},{"buffer":0,"byteOffset":23004,"byteLength":840,"target":34962,"byteStride":12},{"buffer":0,"byteOffset":23844,"byteLength":560,"target":34962,"byteStride":8},{"buffer":0,"byteOffset":24404,"byteLength":180,"target":34963}],"buffers":[{"byteLength":24584,"uri":"data:application/octet-stream;base64,"}],"accessors":[{"bufferView":0,"componentType":5126,"count":38,"max":[-0.0021487975027412176,0.004395987372845411,0.15897594392299652],"min":[-0.7201535701751709,-0.21411791443824768,-0.15352405607700348],"type":"VEC3"},{"bufferView":1,"componentType":5126,"count":38,"max":[0.22958466410636902,0.991317093372345,0.384137898683548],"min":[-0.5703273415565491,0.7380902171134949,-0.5036169290542603],"type":"VEC3"},{"bufferView":2,"componentType":5126,"count":38,"max":[0.46875,0.1571751832962036],"min":[0.12671445310115814,0],"type":"VEC2"},{"bufferView":3,"componentType":5123,"count":54,"max":[37],"min":[0],"type":"SCALAR"},{"bufferView":4,"componentType":5126,"count":260,"max":[0.26875001192092896,1.2062499523162842,0.03125],"min":[-0.11249999701976776,0,-0.03125],"type":"VEC3"},{"bufferView":5,"componentType":5126,"count":260,"max":[1,1,1],"min":[-0.9999980330467224,-0.9659880995750427,-1],"type":"VEC3"},{"bufferView":6,"componentType":5126,"count":260,"max":[0.5,0.5975843667984009],"min":[0,0],"type":"VEC2"},{"bufferView":7,"componentType":5123,"count":378,"max":[259],"min":[0],"type":"SCALAR"},{"bufferView":8,"componentType":5126,"count":60,"max":[6.453171330633722e-16,0.03984374925494194,0.16875000298023224],"min":[-0.34687501192092896,0,-0.16875000298023224],"type":"VEC3"},{"bufferView":9,"componentType":5126,"count":60,"max":[0.2522282600402832,0.9938293695449829,0.18584731221199036],"min":[-0.20452339947223663,0.958467423915863,-0.2003880739212036],"type":"VEC3"},{"bufferView":10,"componentType":5126,"count":60,"max":[0.3873065114021301,0.22616803646087646],"min":[0.3001934885978699,0.140625],"type":"VEC2"},{"bufferView":11,"componentType":5123,"count":84,"max":[59],"min":[0],"type":"SCALAR"},{"bufferView":12,"componentType":5126,"count":60,"max":[6.453171330633722e-16,0,0.12187500298023224],"min":[-0.34687501192092896,-0.03984374925494194,-0.12187500298023224],"type":"VEC3"},{"bufferView":13,"componentType":5126,"count":60,"max":[0.2502031922340393,-0.9503852128982544,0.2533456087112427],"min":[-0.20318745076656342,-0.9899893999099731,-0.2724880576133728],"type":"VEC3"},{"bufferView":14,"componentType":5126,"count":60,"max":[0.3872535228729248,0.0625],"min":[0.09391699731349945,0.00029271841049194336],"type":"VEC2"},{"bufferView":15,"componentType":5123,"count":84,"max":[59],"min":[0],"type":"SCALAR"},{"bufferView":16,"componentType":5126,"count":60,"max":[6.453171330633722e-16,0,0.12187500298023224],"min":[-0.34687501192092896,-0.03984374925494194,-0.12187500298023224],"type":"VEC3"},{"bufferView":17,"componentType":5126,"count":60,"max":[0.2502031922340393,-0.9503852128982544,0.2533456087112427],"min":[-0.20318745076656342,-0.9899893999099731,-0.2724880576133728],"type":"VEC3"},{"bufferView":18,"componentType":5126,"count":60,"max":[0.4341285228729248,0.375],"min":[0.07829199731349945,0.15625],"type":"VEC2"},{"bufferView":19,"componentType":5123,"count":84,"max":[59],"min":[0],"type":"SCALAR"},{"bufferView":20,"componentType":5126,"count":60,"max":[6.453171330633722e-16,0,0.12187500298023224],"min":[-0.34687501192092896,-0.03984374925494194,-0.12187500298023224],"type":"VEC3"},{"bufferView":21,"componentType":5126,"count":60,"max":[0.2502031922340393,-0.9503852128982544,0.2533456087112427],"min":[-0.20318745076656342,-0.9899893999099731,-0.2724880576133728],"type":"VEC3"},{"bufferView":22,"componentType":5126,"count":60,"max":[0.4653785228729248,0.296875],"min":[0.25016698241233826,0],"type":"VEC2"},{"bufferView":23,"componentType":5123,"count":84,"max":[59],"min":[0],"type":"SCALAR"},{"bufferView":24,"componentType":5126,"count":60,"max":[6.453171330633722e-16,0,0.12187500298023224],"min":[-0.34687501192092896,-0.03984374925494194,-0.12187500298023224],"type":"VEC3"},{"bufferView":25,"componentType":5126,"count":60,"max":[0.2502031922340393,-0.9503852128982544,0.2533456087112427],"min":[-0.20318745076656342,-0.9899893999099731,-0.2724880576133728],"type":"VEC3"},{"bufferView":26,"componentType":5126,"count":60,"max":[0.4810035228729248,0.203125],"min":[0.3939964771270752,0.06279271841049194],"type":"VEC2"},{"bufferView":27,"componentType":5123,"count":84,"max":[59],"min":[0],"type":"SCALAR"},{"bufferView":28,"componentType":5126,"count":38,"max":[-0.0021487975027412176,0.015312740579247475,0.1431995928287506],"min":[-0.6986694931983948,-0.1377006471157074,-0.1693004071712494],"type":"VEC3"},{"bufferView":29,"componentType":5126,"count":38,"max":[0.22958466410636902,0.984531819820404,0.4013892412185669],"min":[-0.4853290915489197,0.7878979444503784,-0.5036169290542603],"type":"VEC3"},{"bufferView":30,"componentType":5126,"count":38,"max":[0.296875,0.36781930923461914],"min":[0.17525523900985718,0.140625],"type":"VEC2"},{"bufferView":31,"componentType":5123,"count":54,"max":[37],"min":[0],"type":"SCALAR"},{"bufferView":32,"componentType":5126,"count":70,"max":[0.13085944950580597,0.04756772890686989,0.12280397862195969],"min":[-0.1027655377984047,-0.04146071523427963,-0.12552353739738464],"type":"VEC3"},{"bufferView":33,"componentType":5126,"count":70,"max":[0.7195135354995728,0.8766697645187378,0.8726212978363037],"min":[-0.915846049785614,0.3607949912548065,-0.8296450972557068],"type":"VEC3"},{"bufferView":34,"componentType":5126,"count":70,"max":[0.484375,0.4614616632461548],"min":[0.1490267664194107,0],"type":"VEC2"},{"bufferView":35,"componentType":5123,"count":90,"max":[69],"min":[0],"type":"SCALAR"}],"materials":[{"pbrMetallicRoughness":{"metallicFactor":0,"roughnessFactor":1,"baseColorTexture":{"index":0}},"alphaMode":"MASK","alphaCutoff":0.05,"doubleSided":true}],"textures":[{"sampler":0,"source":0,"name":"bratek"}],"samplers":[{"magFilter":9728,"minFilter":9728,"wrapS":33071,"wrapT":33071}],"images":[{"mimeType":"image/png","uri":"data:image/png;base64,"}],"meshes":[{"primitives":[{"mode":4,"attributes":{"POSITION":0,"NORMAL":1,"TEXCOORD_0":2},"indices":3,"material":0}]},{"primitives":[{"mode":4,"attributes":{"POSITION":4,"NORMAL":5,"TEXCOORD_0":6},"indices":7,"material":0}]},{"primitives":[{"mode":4,"attributes":{"POSITION":8,"NORMAL":9,"TEXCOORD_0":10},"indices":11,"material":0}]},{"primitives":[{"mode":4,"attributes":{"POSITION":12,"NORMAL":13,"TEXCOORD_0":14},"indices":15,"material":0}]},{"primitives":[{"mode":4,"attributes":{"POSITION":16,"NORMAL":17,"TEXCOORD_0":18},"indices":19,"material":0}]},{"primitives":[{"mode":4,"attributes":{"POSITION":20,"NORMAL":21,"TEXCOORD_0":22},"indices":23,"material":0}]},{"primitives":[{"mode":4,"attributes":{"POSITION":24,"NORMAL":25,"TEXCOORD_0":26},"indices":27,"material":0}]},{"primitives":[{"mode":4,"attributes":{"POSITION":28,"NORMAL":29,"TEXCOORD_0":30},"indices":31,"material":0}]},{"primitives":[{"mode":4,"attributes":{"POSITION":32,"NORMAL":33,"TEXCOORD_0":34},"indices":35,"material":0}]}]}